<svg id="_Layer_" data-name="&lt;Layer&gt;" xmlns="http://www.w3.org/2000/svg" xmlns:xlink="http://www.w3.org/1999/xlink" viewBox="0 0 2760 1840"><defs><style>.cls-1{fill:#fff;}.cls-2{fill:#3a5575;}.cls-3{fill:#eaeef1;}.cls-4{fill:#00baf2;}.cls-5{fill:#4c767f;}.cls-6{fill:#31313c;}.cls-7{clip-path:url(#clip-path);}.cls-8{fill:#31313b;}.cls-9{opacity:0.2;}.cls-10{fill:#a2d2ec;}.cls-11{clip-path:url(#clip-path-2);}.cls-12{fill:#fffdfc;}.cls-13{fill:#080435;}</style><clipPath id="clip-path"><path class="cls-1" d="M1584.88,1105.64s-15.14,149.15,101.19,197.47c15.48,6.42,38.19,23.34,40,40,0,0,9.32-34.37,20,321.7l254,12.07c-9.48-41.6,58.1-102.75,48.24-142.76-50.75-206.09-85.16-312.21-85.16-312.21Z"/></clipPath><clipPath id="clip-path-2"><polygon class="cls-2" points="1401.82 719.49 1546.46 736.06 1622.67 612.01 1401.82 719.49"/></clipPath></defs><title>newsletter</title><rect class="cls-1" width="2760" height="1840"/><path class="cls-3" d="M2106,1653.33c-37.7,19.48-82.84,34-134.64,40.75-60.54,7.91-130.2,5.23-207.74-12.51-28.29-6.47-54.62-12-79.34-16.58q-16.14-3-31.38-5.52c-17.22-2.81-33.65-5.17-49.43-7-131.6-15.72-218.1.38-341.55,36.2-157.61,45.72-256.68,50-331.11,35.61a373.46,373.46,0,0,1-47.07-12.34C792.84,1681.64,735.15,1625,618,1604.42c-30.81-5.43-65.72-8.37-106.43-7.67-2.4,0-4.83.09-7.27.16-174.47,4.73-224.22-171.08.25-233.77,32.68-9.13,68.81-13.9,123.8-16.55,17.88-.86,37.77-1.5,60.18-2,6.09-.13,12.35-.26,18.83-.37l1.68,0,1.7,0c4.22-.07,8.53-.15,12.92-.21,18.37-.26,38.24-.47,59.82-.66h0l13.83-.1h1.59l1.67,0c39.56-.29,84.55-.53,136.16-.87h2.89l11-.07,5.87,0q8.14-.08,16.5-.12l10.67-.07h0l7.58-.06,3.06,0h1.49q39.5-.3,83.69-.74h0q18.35-.17,37.56-.38l4,0,7.8-.09h0q2.7,0,5.4-.06l6.76-.08h1.7l1.71,0c2.11,0,4.22-.07,6.35-.09l1.41,0,1.41,0q22.45-.27,46-.57c183.55-2.44,325.47-2.82,438-2.54,31.15.09,60,.21,87,.36,36,.21,68.51.44,98,.63,13.94.1,27.22.18,39.91.25l5.5,0c35.43.16,66.19.2,93.76-.07,11.57-.11,22.57-.28,33.11-.52l5.18-.12,8.21-.22C2297.33,1329.13,2296.8,1554.79,2106,1653.33Z"/><path class="cls-2" d="M420.61,415.73c4-24.58,33.21-12.93,33.21-12.93s6.19-30.81,29-20.75-3.67,67.48-3.67,67.48S416.58,440.31,420.61,415.73Z"/><path class="cls-4" d="M2458.05,576.91c23.2,9.05,5.73,35.17,5.73,35.17s28.84,12.48,14.26,32.67-65.24-17.64-65.24-17.64S2434.85,567.85,2458.05,576.91Z"/><path class="cls-4" d="M446.82,767,439.46,734l48.09-31L625.14,732.7Zm-2.43-31L450.17,762l153.11-29.49L488.4,707.68Z"/><polygon class="cls-4" points="629.29 734.55 427.84 685.71 270.38 735.4 629.29 734.55"/><polygon class="cls-4" points="476.18 660.57 629.29 734.55 495.59 572.73 476.18 660.57"/><polygon class="cls-5" points="476.18 660.57 486.55 699.94 629.29 734.55 476.18 660.57"/><path class="cls-1" d="M1794.41,1158c-32.8-54.33-57.39-100.24-57.39-100.24L1736,852s99.82,38.95,141.39,94.42c8.42,11.23,125,202.57,74.16,388.39Z"/><path class="cls-6" d="M1960.87,1258.27l-.23,0a2.74,2.74,0,0,1-2.52-3c4-47.75-3.16-107.25-20.07-167.55-16-56.91-38.86-107.83-62.84-139.7-37.83-50.28-108.44-77.51-124.68-83.27l-10.71,192.38c3.18,5.9,26.71,49.35,57,99.44a2.76,2.76,0,0,1-4.72,2.85c-32.46-53.77-57.21-99.91-57.46-100.37a2.74,2.74,0,0,1-.32-1.46l11-196.78a2.76,2.76,0,0,1,3.59-2.48c.87.28,87,28.21,130.81,86.37,24.37,32.4,47.61,84,63.74,141.53,17.09,60.91,24.28,121.11,20.25,169.5A2.77,2.77,0,0,1,1960.87,1258.27Z"/><path class="cls-2" d="M1873.65,1360.2s-206.54,114.63-203.19,159c1,12.64,66.51,6.4,66.51,6.4Z"/><path class="cls-6" d="M1808.32,1016.61a2.76,2.76,0,0,1-2.56-1.74c-.13-.33-13.57-33.56-36.87-55.76-22-20.92-55.3-40.19-55.64-40.38a2.76,2.76,0,1,1,2.75-4.79c.34.2,34.26,19.79,56.7,41.17,24.19,23.06,37.62,56.31,38.18,57.71a2.76,2.76,0,0,1-1.53,3.59A2.9,2.9,0,0,1,1808.32,1016.61Z"/><path class="cls-1" d="M1584.88,1105.64s-15.14,149.15,101.19,197.47c15.48,6.42,38.19,23.34,40,40,0,0,9.32-34.37,20,321.7l254,12.07c-9.48-41.6,58.1-102.75,48.24-142.76-50.75-206.09-85.16-312.21-85.16-312.21Z"/><g class="cls-7"><path class="cls-1" d="M1695.11,1364.41a2.92,2.92,0,1,1,.49,4.1A2.91,2.91,0,0,1,1695.11,1364.41Z"/><path class="cls-1" d="M1701,1379.31a2.92,2.92,0,1,1,.49,4.1A2.92,2.92,0,0,1,1701,1379.31Z"/><path class="cls-1" d="M1708.7,1364.8a2.92,2.92,0,1,1,.49,4.1A2.92,2.92,0,0,1,1708.7,1364.8Z"/><path class="cls-1" d="M1682.52,1380.46a2.92,2.92,0,1,1,.49,4.1A2.92,2.92,0,0,1,1682.52,1380.46Z"/><path class="cls-1" d="M1721.27,1378.37a2.92,2.92,0,1,1,.49,4.1A2.92,2.92,0,0,1,1721.27,1378.37Z"/><path class="cls-1" d="M1693.35,1393.82a2.92,2.92,0,1,1,.5,4.1A2.93,2.93,0,0,1,1693.35,1393.82Z"/><path class="cls-1" d="M1713.48,1397.76a2.92,2.92,0,1,1,.49,4.1A2.92,2.92,0,0,1,1713.48,1397.76Z"/><path class="cls-1" d="M1726.45,1390.68a2.92,2.92,0,1,1,.5,4.1A2.92,2.92,0,0,1,1726.45,1390.68Z"/><path class="cls-1" d="M1769.3,1388.09a2.92,2.92,0,0,1-3.61,4.6"/><path class="cls-1" d="M1737.29,1404a2.92,2.92,0,1,1,.49,4.1A2.92,2.92,0,0,1,1737.29,1404Z"/><path class="cls-1" d="M1757.41,1408a2.92,2.92,0,1,1,.5,4.1A2.93,2.93,0,0,1,1757.41,1408Z"/><path class="cls-1" d="M1709.56,1411a2.92,2.92,0,1,1,.49,4.1A2.92,2.92,0,0,1,1709.56,1411Z"/><path class="cls-1" d="M1715.47,1425.9a2.92,2.92,0,1,1,.5,4.1A2.92,2.92,0,0,1,1715.47,1425.9Z"/><path class="cls-1" d="M1723.14,1411.39a2.92,2.92,0,1,1,.5,4.1A2.92,2.92,0,0,1,1723.14,1411.39Z"/><path class="cls-1" d="M1697,1427.06a2.92,2.92,0,1,1,.5,4.1A2.92,2.92,0,0,1,1697,1427.06Z"/><path class="cls-1" d="M1735.71,1425a2.92,2.92,0,1,1,.5,4.1A2.92,2.92,0,0,1,1735.71,1425Z"/><path class="cls-1" d="M1725.35,1447.64a2.92,2.92,0,1,1,.49,4.1A2.93,2.93,0,0,1,1725.35,1447.64Z"/><path class="cls-1" d="M1743.23,1440.25a2.92,2.92,0,1,1,.49,4.1A2.9,2.9,0,0,1,1743.23,1440.25Z"/><path class="cls-1" d="M1662.83,1394.89a2.92,2.92,0,1,1,.5,4.1A2.93,2.93,0,0,1,1662.83,1394.89Z"/><path class="cls-1" d="M1668.75,1409.78a2.92,2.92,0,1,1,.49,4.1A2.91,2.91,0,0,1,1668.75,1409.78Z"/><path class="cls-1" d="M1676.42,1395.27a2.92,2.92,0,1,1,.49,4.1A2.91,2.91,0,0,1,1676.42,1395.27Z"/><path class="cls-1" d="M1650.24,1410.94a2.92,2.92,0,1,1,.49,4.1A2.92,2.92,0,0,1,1650.24,1410.94Z"/><path class="cls-1" d="M1689,1408.84a2.92,2.92,0,1,1,.49,4.1A2.91,2.91,0,0,1,1689,1408.84Z"/><path class="cls-1" d="M1691,1444.08a2.92,2.92,0,1,1,.5,4.1A2.91,2.91,0,0,1,1691,1444.08Z"/><path class="cls-1" d="M1681.2,1428.23a2.92,2.92,0,1,1,.49,4.1A2.91,2.91,0,0,1,1681.2,1428.23Z"/><path class="cls-1" d="M1731.25,1336.05a2.92,2.92,0,0,1-4.6-3.61"/><path class="cls-1" d="M1744.9,1323.37a2.92,2.92,0,1,1,.5,4.1A2.92,2.92,0,0,1,1744.9,1323.37Z"/><path class="cls-1" d="M1714.06,1348.49a2.92,2.92,0,1,1,.5,4.1A2.92,2.92,0,0,1,1714.06,1348.49Z"/><path class="cls-1" d="M1753.31,1350.5a2.92,2.92,0,0,1,3.6-4.6"/><path class="cls-1" d="M1724.9,1361.85a2.92,2.92,0,1,1,.49,4.1A2.92,2.92,0,0,1,1724.9,1361.85Z"/><path class="cls-1" d="M1769.88,1419.35a2.92,2.92,0,1,1,.49,4.1A2.92,2.92,0,0,1,1769.88,1419.35Z"/><path class="cls-1" d="M1775.79,1434.24a2.92,2.92,0,1,1,.5,4.1A2.92,2.92,0,0,1,1775.79,1434.24Z"/><path class="cls-1" d="M1783.46,1419.73a2.92,2.92,0,1,1,.5,4.1A2.92,2.92,0,0,1,1783.46,1419.73Z"/><path class="cls-1" d="M1750.35,1421.71a2.92,2.92,0,1,1,.5,4.1A2.91,2.91,0,0,1,1750.35,1421.71Z"/><path class="cls-1" d="M1795.51,1409.11a2.92,2.92,0,1,1,.5,4.1A2.93,2.93,0,0,1,1795.51,1409.11Z"/><path class="cls-1" d="M1768.12,1448.76a2.92,2.92,0,1,1,.5,4.1A2.93,2.93,0,0,1,1768.12,1448.76Z"/><path class="cls-1" d="M1788.24,1452.7a2.92,2.92,0,1,1,.5,4.1A2.93,2.93,0,0,1,1788.24,1452.7Z"/><path class="cls-1" d="M1767.51,1360.78a2.92,2.92,0,0,1-4.6-3.61"/><path class="cls-1" d="M1786.78,1369.33a2.92,2.92,0,1,1,.49,4.1A2.92,2.92,0,0,1,1786.78,1369.33Z"/><path class="cls-1" d="M1811,1384.62a2.92,2.92,0,1,1,.49,4.1A2.91,2.91,0,0,1,1811,1384.62Z"/><path class="cls-1" d="M1785.85,1348.07a2.92,2.92,0,1,1,.5,4.1A2.91,2.91,0,0,1,1785.85,1348.07Z"/><path class="cls-1" d="M1779.11,1383.84a2.92,2.92,0,1,1,.49,4.1A2.9,2.9,0,0,1,1779.11,1383.84Z"/><path class="cls-1" d="M1775.79,1403.46a2.92,2.92,0,1,1,.5,4.1A2.92,2.92,0,0,1,1775.79,1403.46Z"/><path class="cls-1" d="M1685.41,1314.06a2.92,2.92,0,1,1,.5,4.1A2.93,2.93,0,0,1,1685.41,1314.06Z"/><path class="cls-1" d="M1663.28,1342.28a2.92,2.92,0,1,1,.49,4.1A2.92,2.92,0,0,1,1663.28,1342.28Z"/><path class="cls-1" d="M1706.07,1331.52a2.92,2.92,0,1,1,.49,4.1A2.92,2.92,0,0,1,1706.07,1331.52Z"/><path class="cls-1" d="M1661,1379.48a2.92,2.92,0,1,1,.5,4.1A2.91,2.91,0,0,1,1661,1379.48Z"/><path class="cls-1" d="M1683.52,1341.34a2.92,2.92,0,1,1,.5,4.1A2.92,2.92,0,0,1,1683.52,1341.34Z"/><path class="cls-1" d="M1644.35,1366.41a2.92,2.92,0,1,1,.5,4.1A2.92,2.92,0,0,1,1644.35,1366.41Z"/><path class="cls-1" d="M1675.73,1360.73a2.92,2.92,0,1,1,.5,4.1A2.93,2.93,0,0,1,1675.73,1360.73Z"/><path class="cls-1" d="M1713.64,1438a2.92,2.92,0,1,1,2.47,3.31A2.91,2.91,0,0,1,1713.64,1438Z"/><path class="cls-1" d="M1726.19,1447.91a2.92,2.92,0,1,1,2.48,3.31A2.92,2.92,0,0,1,1726.19,1447.91Z"/><path class="cls-1" d="M1725.61,1431.51a2.92,2.92,0,1,1,2.47,3.3A2.92,2.92,0,0,1,1725.61,1431.51Z"/><path class="cls-1" d="M1710.73,1458.14a2.92,2.92,0,1,1,2.47,3.31A2.92,2.92,0,0,1,1710.73,1458.14Z"/><path class="cls-1" d="M1743.27,1437a2.92,2.92,0,1,1,2.47,3.31A2.92,2.92,0,0,1,1743.27,1437Z"/><path class="cls-1" d="M1726.78,1464.32a2.92,2.92,0,1,1,2.47,3.3A2.92,2.92,0,0,1,1726.78,1464.32Z"/><path class="cls-1" d="M1746.19,1457.7a2.92,2.92,0,1,1,2.47,3.3A2.92,2.92,0,0,1,1746.19,1457.7Z"/><path class="cls-1" d="M1756.82,1424.9a2.92,2.92,0,1,1,2.47,3.31A2.92,2.92,0,0,1,1756.82,1424.9Z"/><path class="cls-1" d="M1769.37,1434.87a2.92,2.92,0,1,1,2.47,3.3A2.92,2.92,0,0,1,1769.37,1434.87Z"/><path class="cls-1" d="M1768.79,1418.46a2.92,2.92,0,1,1,2.47,3.31A2.92,2.92,0,0,1,1768.79,1418.46Z"/><path class="cls-1" d="M1753.9,1445.1a2.92,2.92,0,1,1,2.48,3.3A2.92,2.92,0,0,1,1753.9,1445.1Z"/><path class="cls-1" d="M1788.92,1427.27a2.92,2.92,0,0,1,.83-5.79"/><path class="cls-1" d="M1770,1451.27a2.92,2.92,0,1,1,2.47,3.31A2.91,2.91,0,0,1,1770,1451.27Z"/><path class="cls-1" d="M1789.36,1444.65a2.93,2.93,0,1,1,2.48,3.31A2.93,2.93,0,0,1,1789.36,1444.65Z"/><path class="cls-1" d="M1749.39,1471.14a2.92,2.92,0,1,1,2.48,3.31A2.92,2.92,0,0,1,1749.39,1471.14Z"/><path class="cls-1" d="M1762,1481.1a2.92,2.92,0,1,1,2.47,3.31A2.92,2.92,0,0,1,1762,1481.1Z"/><path class="cls-1" d="M1761.36,1464.7a2.92,2.92,0,1,1,2.48,3.3A2.92,2.92,0,0,1,1761.36,1464.7Z"/><path class="cls-1" d="M1746.48,1491.33a2.92,2.92,0,1,1,2.48,3.31A2.92,2.92,0,0,1,1746.48,1491.33Z"/><path class="cls-1" d="M1779,1470.19a2.92,2.92,0,1,1,2.47,3.31A2.92,2.92,0,0,1,1779,1470.19Z"/><path class="cls-1" d="M1781.35,1495a2.92,2.92,0,1,1,2.47,3.3A2.92,2.92,0,0,1,1781.35,1495Z"/><path class="cls-1" d="M1793.16,1479.7a2.92,2.92,0,1,1,2.47,3.31A2.92,2.92,0,0,1,1793.16,1479.7Z"/><path class="cls-1" d="M1700.85,1480.46a2.92,2.92,0,1,1,2.48,3.31A2.92,2.92,0,0,1,1700.85,1480.46Z"/><path class="cls-1" d="M1713.41,1490.42a2.92,2.92,0,1,1,2.47,3.31A2.92,2.92,0,0,1,1713.41,1490.42Z"/><path class="cls-1" d="M1712.82,1474a2.92,2.92,0,1,1,2.48,3.31A2.92,2.92,0,0,1,1712.82,1474Z"/><path class="cls-1" d="M1697.94,1500.65a2.92,2.92,0,1,1,2.47,3.31A2.92,2.92,0,0,1,1697.94,1500.65Z"/><path class="cls-1" d="M1730.48,1479.51a2.92,2.92,0,1,1,2.48,3.31A2.92,2.92,0,0,1,1730.48,1479.51Z"/><path class="cls-1" d="M1749.83,1509a2.92,2.92,0,1,1,2.47,3.31A2.92,2.92,0,0,1,1749.83,1509Z"/><path class="cls-1" d="M1733.4,1500.21a2.92,2.92,0,1,1,2.48,3.3A2.92,2.92,0,0,1,1733.4,1500.21Z"/><path class="cls-1" d="M1725,1394.51a2.92,2.92,0,1,1,2.47,3.31A2.92,2.92,0,0,1,1725,1394.51Z"/><path class="cls-1" d="M1737.6,1404.47a2.92,2.92,0,1,1,2.47,3.31A2.92,2.92,0,0,1,1737.6,1404.47Z"/><path class="cls-1" d="M1722.13,1414.7a2.92,2.92,0,1,1,2.47,3.31A2.92,2.92,0,0,1,1722.13,1414.7Z"/><path class="cls-1" d="M1758,1391.09a2.92,2.92,0,0,1-.83,5.78"/><path class="cls-1" d="M1738.18,1420.88a2.92,2.92,0,1,1,2.48,3.3A2.92,2.92,0,0,1,1738.18,1420.88Z"/><path class="cls-1" d="M1757.59,1414.26a2.92,2.92,0,1,1,2.47,3.3A2.92,2.92,0,0,1,1757.59,1414.26Z"/><path class="cls-1" d="M1805.84,1448.29a2.92,2.92,0,1,1,2.47,3.31A2.92,2.92,0,0,1,1805.84,1448.29Z"/><path class="cls-1" d="M1818.39,1458.25a2.93,2.93,0,1,1,2.48,3.31A2.93,2.93,0,0,1,1818.39,1458.25Z"/><path class="cls-1" d="M1817.81,1441.85a2.92,2.92,0,1,1,2.47,3.31A2.92,2.92,0,0,1,1817.81,1441.85Z"/><path class="cls-1" d="M1790.09,1460.07a2.92,2.92,0,1,1,2.48,3.31A2.92,2.92,0,0,1,1790.09,1460.07Z"/><path class="cls-1" d="M1823,1426.63a2.92,2.92,0,1,1,2.48,3.31A2.92,2.92,0,0,1,1823,1426.63Z"/><path class="cls-1" d="M1819,1474.66a2.92,2.92,0,1,1,2.47,3.31A2.92,2.92,0,0,1,1819,1474.66Z"/><path class="cls-1" d="M1838.39,1468a2.92,2.92,0,1,1,2.47,3.31A2.92,2.92,0,0,1,1838.39,1468Z"/><path class="cls-1" d="M1768.8,1397.87a2.92,2.92,0,0,1,5.78.83"/><path class="cls-1" d="M1795.55,1396.51a2.92,2.92,0,1,1,2.47,3.3A2.92,2.92,0,0,1,1795.55,1396.51Z"/><path class="cls-1" d="M1824.18,1397.68a2.92,2.92,0,1,1,2.47,3.31A2.92,2.92,0,0,1,1824.18,1397.68Z"/><path class="cls-1" d="M1780.08,1406.74a2.92,2.92,0,1,1,2.48,3.3A2.92,2.92,0,0,1,1780.08,1406.74Z"/><path class="cls-1" d="M1784.15,1378.54a2.92,2.92,0,1,1,2.47,3.31A2.92,2.92,0,0,1,1784.15,1378.54Z"/><path class="cls-1" d="M1796.13,1412.91a2.92,2.92,0,1,1,2.48,3.31A2.92,2.92,0,0,1,1796.13,1412.91Z"/><path class="cls-1" d="M1803.05,1431.57a2.92,2.92,0,1,1,2.47,3.31A2.92,2.92,0,0,1,1803.05,1431.57Z"/><path class="cls-1" d="M1680.13,1399.14a2.92,2.92,0,1,1,2.47,3.3A2.92,2.92,0,0,1,1680.13,1399.14Z"/><path class="cls-1" d="M1675,1434.63a2.92,2.92,0,1,1,2.47,3.31A2.92,2.92,0,0,1,1675,1434.63Z"/><path class="cls-1" d="M1706.73,1404a2.92,2.92,0,1,1,2.48,3.3A2.92,2.92,0,0,1,1706.73,1404Z"/><path class="cls-1" d="M1691.6,1468a2.92,2.92,0,1,1,2.48,3.31A2.92,2.92,0,0,1,1691.6,1468Z"/><path class="cls-1" d="M1692.09,1423.72a2.92,2.92,0,1,1,2.47,3.31A2.92,2.92,0,0,1,1692.09,1423.72Z"/><path class="cls-1" d="M1670.63,1465a2.92,2.92,0,1,1,2.48,3.3A2.92,2.92,0,0,1,1670.63,1465Z"/><path class="cls-1" d="M1695,1444.42a2.92,2.92,0,1,1,2.48,3.3A2.92,2.92,0,0,1,1695,1444.42Z"/><path class="cls-1" d="M1725.15,1514.75a2.92,2.92,0,1,1,3.58,2.06A2.92,2.92,0,0,1,1725.15,1514.75Z"/><path class="cls-1" d="M1740.61,1519a2.92,2.92,0,1,1,3.58,2.07A2.92,2.92,0,0,1,1740.61,1519Z"/><path class="cls-1" d="M1733.61,1504.11a2.92,2.92,0,1,1,3.58,2.06A2.93,2.93,0,0,1,1733.61,1504.11Z"/><path class="cls-1" d="M1730.43,1534.45a2.92,2.92,0,1,1,3.58,2.07A2.92,2.92,0,0,1,1730.43,1534.45Z"/><path class="cls-1" d="M1752,1502.2a2.92,2.92,0,1,1,3.58,2.06A2.92,2.92,0,0,1,1752,1502.2Z"/><path class="cls-1" d="M1747.62,1533.8a2.92,2.92,0,1,1,3.58,2.06A2.93,2.93,0,0,1,1747.62,1533.8Z"/><path class="cls-1" d="M1762.85,1520.06a2.92,2.92,0,1,1,3.57,2.07A2.91,2.91,0,0,1,1762.85,1520.06Z"/><path class="cls-1" d="M1759.69,1485.74a2.92,2.92,0,1,1,3.57,2.06A2.92,2.92,0,0,1,1759.69,1485.74Z"/><path class="cls-1" d="M1775.15,1489.94a2.92,2.92,0,1,1,3.58,2.07A2.92,2.92,0,0,1,1775.15,1489.94Z"/><path class="cls-1" d="M1768.15,1475.1a2.92,2.92,0,1,1,3.58,2.06A2.93,2.93,0,0,1,1768.15,1475.1Z"/><path class="cls-1" d="M1765,1505.44a2.92,2.92,0,1,1,3.58,2.07A2.91,2.91,0,0,1,1765,1505.44Z"/><path class="cls-1" d="M1788.61,1469.61a2.92,2.92,0,1,1,1.51,5.64"/><path class="cls-1" d="M1782.16,1504.79a2.92,2.92,0,1,1,3.57,2.06A2.92,2.92,0,0,1,1782.16,1504.79Z"/><path class="cls-1" d="M1797.39,1491.05a2.92,2.92,0,1,1,3.57,2.07A2.91,2.91,0,0,1,1797.39,1491.05Z"/><path class="cls-1" d="M1771.09,1531.15a2.92,2.92,0,1,1,3.58,2.07A2.91,2.91,0,0,1,1771.09,1531.15Z"/><path class="cls-1" d="M1786.56,1535.36a2.92,2.92,0,1,1,3.58,2.06A2.92,2.92,0,0,1,1786.56,1535.36Z"/><path class="cls-1" d="M1779.55,1520.51a2.92,2.92,0,1,1,3.58,2.07A2.92,2.92,0,0,1,1779.55,1520.51Z"/><path class="cls-1" d="M1776.38,1550.86a2.92,2.92,0,1,1,3.57,2.06A2.92,2.92,0,0,1,1776.38,1550.86Z"/><path class="cls-1" d="M1798,1518.6a2.92,2.92,0,1,1,3.58,2.07A2.91,2.91,0,0,1,1798,1518.6Z"/><path class="cls-1" d="M1809.87,1540.5a2.92,2.92,0,1,1,3.58,2.06A2.92,2.92,0,0,1,1809.87,1540.5Z"/><path class="cls-1" d="M1814.69,1521.77a2.92,2.92,0,1,1,3.58,2.06A2.93,2.93,0,0,1,1814.69,1521.77Z"/><path class="cls-1" d="M1730.16,1558.86a2.92,2.92,0,1,1,3.57,2.06A2.92,2.92,0,0,1,1730.16,1558.86Z"/><path class="cls-1" d="M1745.62,1563.06a2.92,2.92,0,1,1,3.58,2.07A2.92,2.92,0,0,1,1745.62,1563.06Z"/><path class="cls-1" d="M1738.62,1548.22a2.92,2.92,0,1,1,3.57,2.06A2.92,2.92,0,0,1,1738.62,1548.22Z"/><path class="cls-1" d="M1735.44,1578.56a2.92,2.92,0,1,1,3.58,2.06A2.93,2.93,0,0,1,1735.44,1578.56Z"/><path class="cls-1" d="M1757,1546.31a2.92,2.92,0,1,1,3.57,2.06A2.92,2.92,0,0,1,1757,1546.31Z"/><path class="cls-1" d="M1786.43,1565.82a2.92,2.92,0,1,1,3.58,2.06A2.92,2.92,0,0,1,1786.43,1565.82Z"/><path class="cls-1" d="M1767.85,1564.17a2.92,2.92,0,1,1,3.58,2.07A2.92,2.92,0,0,1,1767.85,1564.17Z"/><path class="cls-1" d="M1718.5,1470.33a2.92,2.92,0,1,1,3.58,2.06A2.93,2.93,0,0,1,1718.5,1470.33Z"/><path class="cls-1" d="M1734,1474.54a2.92,2.92,0,1,1,3.58,2.06A2.93,2.93,0,0,1,1734,1474.54Z"/><path class="cls-1" d="M1722.2,1450.29a2.92,2.92,0,1,1,3.58,2.07A2.93,2.93,0,0,1,1722.2,1450.29Z"/><path class="cls-1" d="M1723.79,1490a2.92,2.92,0,1,1,3.58,2.07A2.92,2.92,0,0,1,1723.79,1490Z"/><path class="cls-1" d="M1745.36,1457.78a2.92,2.92,0,1,1,3.58,2.06A2.93,2.93,0,0,1,1745.36,1457.78Z"/><path class="cls-1" d="M1741,1489.38a2.92,2.92,0,1,1,3.58,2.06A2.93,2.93,0,0,1,1741,1489.38Z"/><path class="cls-1" d="M1756.2,1475.65a2.92,2.92,0,1,1,3.58,2.06A2.92,2.92,0,0,1,1756.2,1475.65Z"/><path class="cls-1" d="M1814,1487.91a2.92,2.92,0,1,1,3.58,2.06A2.92,2.92,0,0,1,1814,1487.91Z"/><path class="cls-1" d="M1829.43,1492.11a2.92,2.92,0,1,1,3.57,2.07A2.92,2.92,0,0,1,1829.43,1492.11Z"/><path class="cls-1" d="M1822.42,1477.27a2.92,2.92,0,1,1,3.58,2.06A2.92,2.92,0,0,1,1822.42,1477.27Z"/><path class="cls-1" d="M1804.13,1504.94a2.92,2.92,0,1,1,3.58,2.07A2.93,2.93,0,0,1,1804.13,1504.94Z"/><path class="cls-1" d="M1821.15,1461.25a2.92,2.92,0,1,1,3.58,2.07A2.91,2.91,0,0,1,1821.15,1461.25Z"/><path class="cls-1" d="M1836.43,1507A2.92,2.92,0,1,1,1840,1509,2.92,2.92,0,0,1,1836.43,1507Z"/><path class="cls-1" d="M1851.66,1493.22a2.92,2.92,0,1,1,3.58,2.07A2.91,2.91,0,0,1,1851.66,1493.22Z"/><path class="cls-1" d="M1760.05,1456.17a2.92,2.92,0,1,1,3.57,2.06A2.92,2.92,0,0,1,1760.05,1456.17Z"/><path class="cls-1" d="M1784.09,1444.37a2.92,2.92,0,1,1,3.58,2.06A2.92,2.92,0,0,1,1784.09,1444.37Z"/><path class="cls-1" d="M1810.86,1434.17a2.92,2.92,0,1,1,3.58,2.06A2.93,2.93,0,0,1,1810.86,1434.17Z"/><path class="cls-1" d="M1773.91,1459.87a2.92,2.92,0,1,1,3.58,2.06A2.93,2.93,0,0,1,1773.91,1459.87Z"/><path class="cls-1" d="M1766.53,1432.36a2.92,2.92,0,1,1,3.58,2.06A2.93,2.93,0,0,1,1766.53,1432.36Z"/><path class="cls-1" d="M1791.1,1459.22a2.92,2.92,0,1,1,3.57,2.06A2.92,2.92,0,0,1,1791.1,1459.22Z"/><path class="cls-1" d="M1804.8,1473.64a2.92,2.92,0,1,1,3.58,2.06A2.93,2.93,0,0,1,1804.8,1473.64Z"/><path class="cls-1" d="M1679.05,1492.29a2.92,2.92,0,1,1,3.58,2.06A2.93,2.93,0,0,1,1679.05,1492.29Z"/><path class="cls-1" d="M1688.34,1526.93a2.92,2.92,0,1,1,3.58,2.06A2.93,2.93,0,0,1,1688.34,1526.93Z"/><path class="cls-1" d="M1705.41,1486.24a2.92,2.92,0,1,1,3.58,2.07A2.92,2.92,0,0,1,1705.41,1486.24Z"/><path class="cls-1" d="M1716.75,1551.06a2.92,2.92,0,1,1,3.57,2.06A2.92,2.92,0,0,1,1716.75,1551.06Z"/><path class="cls-1" d="M1699.73,1510.17a2.92,2.92,0,1,1,3.58,2.06A2.93,2.93,0,0,1,1699.73,1510.17Z"/><path class="cls-1" d="M1696.28,1556.55a2.92,2.92,0,1,1,3.58,2.06A2.93,2.93,0,0,1,1696.28,1556.55Z"/><path class="cls-1" d="M1710.57,1528a2.92,2.92,0,1,1,3.58,2.06A2.92,2.92,0,0,1,1710.57,1528Z"/><path class="cls-1" d="M1741.74,1587.61a2.92,2.92,0,1,1,4.07.69A2.92,2.92,0,0,1,1741.74,1587.61Z"/><path class="cls-1" d="M1757.7,1586.16a2.92,2.92,0,1,1,4.08.68A2.94,2.94,0,0,1,1757.7,1586.16Z"/><path class="cls-1" d="M1746,1574.69a2.92,2.92,0,1,1,4.07.69A2.92,2.92,0,0,1,1746,1574.69Z"/><path class="cls-1" d="M1753.57,1604.23a2.92,2.92,0,1,1,4.08.69A2.92,2.92,0,0,1,1753.57,1604.23Z"/><path class="cls-1" d="M1762.53,1566.48a2.92,2.92,0,1,1,4.07.68A2.93,2.93,0,0,1,1762.53,1566.48Z"/><path class="cls-1" d="M1769.45,1597.62a2.92,2.92,0,1,1,4.07.69A2.91,2.91,0,0,1,1769.45,1597.62Z"/><path class="cls-1" d="M1778.93,1579.44a2.92,2.92,0,1,1,4.07.68A2.93,2.93,0,0,1,1778.93,1579.44Z"/><path class="cls-1" d="M1764,1548.37a2.92,2.92,0,1,1,4.07.69A2.92,2.92,0,0,1,1764,1548.37Z"/><path class="cls-1" d="M1779.94,1546.91a2.92,2.92,0,1,1,4.08.69A2.92,2.92,0,0,1,1779.94,1546.91Z"/><path class="cls-1" d="M1768.2,1535.45a2.92,2.92,0,1,1,4.07.68A2.91,2.91,0,0,1,1768.2,1535.45Z"/><path class="cls-1" d="M1775.81,1565a2.92,2.92,0,1,1,4.07.69A2.92,2.92,0,0,1,1775.81,1565Z"/><path class="cls-1" d="M1784.77,1527.24a2.92,2.92,0,1,1,4.07.68A2.93,2.93,0,0,1,1784.77,1527.24Z"/><path class="cls-1" d="M1791.69,1558.38a2.92,2.92,0,1,1,4.07.69A2.92,2.92,0,0,1,1791.69,1558.38Z"/><path class="cls-1" d="M1801.16,1540.19a2.92,2.92,0,1,1,4.08.69A2.93,2.93,0,0,1,1801.16,1540.19Z"/><path class="cls-1" d="M1790.52,1587a2.92,2.92,0,1,1,4.08.69A2.92,2.92,0,0,1,1790.52,1587Z"/><path class="cls-1" d="M1806.48,1585.49a2.92,2.92,0,1,1,4.08.69A2.93,2.93,0,0,1,1806.48,1585.49Z"/><path class="cls-1" d="M1794.74,1574a2.92,2.92,0,1,1,4.07.68A2.93,2.93,0,0,1,1794.74,1574Z"/><path class="cls-1" d="M1802.35,1603.57a2.92,2.92,0,1,1,4.08.69A2.93,2.93,0,0,1,1802.35,1603.57Z"/><path class="cls-1" d="M1811.31,1565.81a2.92,2.92,0,1,1,4.07.69A2.92,2.92,0,0,1,1811.31,1565.81Z"/><path class="cls-1" d="M1830.13,1582.17a2.92,2.92,0,1,1,4.07.69A2.92,2.92,0,0,1,1830.13,1582.17Z"/><path class="cls-1" d="M1828.1,1562.94a2.92,2.92,0,1,1,4.07.68A2.93,2.93,0,0,1,1828.1,1562.94Z"/><path class="cls-1" d="M1761.83,1627.2a2.92,2.92,0,1,1,4.07.68A2.92,2.92,0,0,1,1761.83,1627.2Z"/><path class="cls-1" d="M1777.79,1625.74a2.92,2.92,0,1,1,4.08.69A2.93,2.93,0,0,1,1777.79,1625.74Z"/><path class="cls-1" d="M1766.05,1614.28a2.92,2.92,0,1,1,4.07.68A2.93,2.93,0,0,1,1766.05,1614.28Z"/><path class="cls-1" d="M1773.66,1643.82a2.92,2.92,0,1,1,4.08.69A2.92,2.92,0,0,1,1773.66,1643.82Z"/><path class="cls-1" d="M1782.62,1606.06a2.92,2.92,0,1,1,4.07.69A2.92,2.92,0,0,1,1782.62,1606.06Z"/><path class="cls-1" d="M1817,1614.08a2.92,2.92,0,1,1,4.07.68A2.91,2.91,0,0,1,1817,1614.08Z"/><path class="cls-1" d="M1799,1619a2.91,2.91,0,1,1,4.07.69A2.92,2.92,0,0,1,1799,1619Z"/><path class="cls-1" d="M1720,1548.31a2.92,2.92,0,1,1,4.07.69A2.92,2.92,0,0,1,1720,1548.31Z"/><path class="cls-1" d="M1736,1546.85a2.92,2.92,0,1,1,4.07.69A2.92,2.92,0,0,1,1736,1546.85Z"/><path class="cls-1" d="M1716.48,1528.24a2.92,2.92,0,1,1,4.07.69A2.92,2.92,0,0,1,1716.48,1528.24Z"/><path class="cls-1" d="M1731.84,1564.93a2.92,2.92,0,1,1,4.07.69A2.92,2.92,0,0,1,1731.84,1564.93Z"/><path class="cls-1" d="M1740.8,1527.17a2.92,2.92,0,1,1,4.07.69A2.91,2.91,0,0,1,1740.8,1527.17Z"/><path class="cls-1" d="M1747.72,1558.32a2.92,2.92,0,1,1,4.07.68A2.91,2.91,0,0,1,1747.72,1558.32Z"/><path class="cls-1" d="M1757.19,1540.13a2.92,2.92,0,1,1,4.08.69A2.93,2.93,0,0,1,1757.19,1540.13Z"/><path class="cls-1" d="M1815.6,1531.46a2.92,2.92,0,1,1,4.07.68A2.91,2.91,0,0,1,1815.6,1531.46Z"/><path class="cls-1" d="M1831.56,1530a2.92,2.92,0,1,1,4.07.69A2.92,2.92,0,0,1,1831.56,1530Z"/><path class="cls-1" d="M1819.81,1518.53a2.92,2.92,0,1,1,4.08.69A2.92,2.92,0,0,1,1819.81,1518.53Z"/><path class="cls-1" d="M1812.34,1550.85a2.91,2.91,0,1,1,4.07.69A2.92,2.92,0,0,1,1812.34,1550.85Z"/><path class="cls-1" d="M1813,1504a2.92,2.92,0,1,1,4.07.69A2.92,2.92,0,0,1,1813,1504Z"/><path class="cls-1" d="M1843.31,1541.47a2.92,2.92,0,1,1,4.07.68A2.93,2.93,0,0,1,1843.31,1541.47Z"/><path class="cls-1" d="M1852.78,1523.28a2.92,2.92,0,1,1,4.07.69A2.92,2.92,0,0,1,1852.78,1523.28Z"/><path class="cls-1" d="M1754,1520.53a2.91,2.91,0,1,1,4.07.69A2.92,2.92,0,0,1,1754,1520.53Z"/><path class="cls-1" d="M1772.41,1501.09a2.92,2.92,0,1,1,4.07.68A2.91,2.91,0,0,1,1772.41,1501.09Z"/><path class="cls-1" d="M1793.94,1482.18a2.92,2.92,0,1,1,4.07.69A2.92,2.92,0,0,1,1793.94,1482.18Z"/><path class="cls-1" d="M1768.28,1519.17a2.92,2.92,0,1,1,4.07.68A2.93,2.93,0,0,1,1768.28,1519.17Z"/><path class="cls-1" d="M1751.76,1496a2.92,2.92,0,1,1,4.07.69A2.91,2.91,0,0,1,1751.76,1496Z"/><path class="cls-1" d="M1784.16,1512.55a2.91,2.91,0,1,1,4.07.69A2.92,2.92,0,0,1,1784.16,1512.55Z"/><path class="cls-1" d="M1802,1521.28a2.91,2.91,0,1,1,4.07.69A2.92,2.92,0,0,1,1802,1521.28Z"/><path class="cls-1" d="M1690.7,1582.66a2.92,2.92,0,1,1,4.08.68A2.93,2.93,0,0,1,1690.7,1582.66Z"/><path class="cls-1" d="M1711.5,1611.88a2.92,2.92,0,1,1,4.07.68A2.93,2.93,0,0,1,1711.5,1611.88Z"/><path class="cls-1" d="M1713.3,1567.79a2.92,2.92,0,1,1,4.07.69A2.92,2.92,0,0,1,1713.3,1567.79Z"/><path class="cls-1" d="M1746.54,1624.57a2.92,2.92,0,1,1,4.08.69A2.93,2.93,0,0,1,1746.54,1624.57Z"/><path class="cls-1" d="M1716.33,1592.2a2.92,2.92,0,1,1,4.07.68A2.93,2.93,0,0,1,1716.33,1592.2Z"/><path class="cls-1" d="M1729.28,1636.86a2.92,2.92,0,1,1,4.08.68A2.93,2.93,0,0,1,1729.28,1636.86Z"/><path class="cls-1" d="M1732.72,1605.16a2.92,2.92,0,1,1,4.08.68A2.93,2.93,0,0,1,1732.72,1605.16Z"/></g><path class="cls-6" d="M1739,1525.87a2.76,2.76,0,0,1-2.76-2.68c0-.94-.09-1.88-.14-2.82L1736,1518c-1.23-25.08-2.52-48.52-3.81-69.69v-.06c-3.17-51.73-5.8-79.71-7.45-94.07-.89-7.7-1.41-10.56-1.42-10.59a1.23,1.23,0,0,1,0-.2c-.87-8.13-7.88-17.79-19.24-26.51a87.19,87.19,0,0,0-8.64-5.91c-.93-.57-1.83-1.1-2.73-1.6-.51-.28-1-.56-1.54-.83l-.18-.09c-1.62-.86-3.15-1.61-4.56-2.22-.43-.2-.79-.35-1.13-.49l-.22-.09-.13-.06-.14-.07c-.55-.22-1.08-.44-1.6-.67l-.18-.09a158.67,158.67,0,0,1-22.37-11.79c-3.5-2.23-7-4.63-10.26-7.15a148,148,0,0,1-22.55-21.15,1.84,1.84,0,0,1-.17-.22c-12.54-14.48-22.72-31.78-30.27-51.41a2.14,2.14,0,0,1-.1-.22l-.42-1.14-.18-.49,0-.14-.66-1.77c-1.87-5.17-3.6-10.58-5.13-16.07-.17-.6-.33-1.2-.49-1.8L1590,1190l-.1-.38c-1.06-4.08-2-8.26-2.89-12.44,0-.06,0-.11,0-.17-.56-2.73-1.1-5.58-1.59-8.49l-.13-.8c-.06-.33-.11-.67-.17-1l-.11-.72c-.07-.41-.13-.81-.19-1.21-.75-4.77-1.37-9.63-1.89-14.81-.42-4.17-.74-8.29-1-12.25a228.79,228.79,0,0,1,.23-32.38,2.76,2.76,0,1,1,5.49.55,227.06,227.06,0,0,0-.21,31.53c.21,3.88.53,7.91.94,12,.51,5.08,1.12,9.84,1.86,14.56.06.41.11.77.17,1.14l.11.69.17,1,.13.75c.47,2.8,1,5.54,1.52,8.17a.85.85,0,0,1,0,.17c.85,4.13,1.81,8.27,2.86,12.29l.1.38c.12.46.24.92.37,1.37.16.62.31,1.19.48,1.77,1.49,5.35,3.17,10.63,5,15.68.21.58.42,1.15.64,1.72l.08.23c0,.07,0,.14.07.2l.09.21c.1.29.21.59.32.88l.09.2c7.36,19.21,17.3,36.09,29.54,50.18l.17.22a142.87,142.87,0,0,0,21.55,20.18c3.18,2.42,6.5,4.74,9.88,6.89a153,153,0,0,0,21.79,11.46l.23.11,1.31.55.11,0,.3.13.06,0c.42.17.84.35,1.27.55,1.45.63,3.09,1.42,4.79,2.33l.2.1,1.71.91c1,.56,1.94,1.12,2.91,1.71a93.54,93.54,0,0,1,9.15,6.26c7.35,5.64,19.89,17.07,21.34,30.19.1.6.61,3.65,1.45,10.85,1.65,14.44,4.3,42.53,7.47,94.42v.06c1.29,21.17,2.58,44.62,3.81,69.7l.12,2.33c.05,1,.1,1.92.14,2.89a.53.53,0,0,1,0,.13A2.77,2.77,0,0,1,1739,1525.87Zm-47.44-217.15h0Zm-.49-.19h0Zm-4-8Zm-.18-.07Z"/><path class="cls-6" d="M2038.72,1546.18a2.75,2.75,0,0,1-2.67-2.09c-11.22-44.83-18.26-82.32-24.47-115.38-6-32-11.67-62.14-20-92.91-3.23-11.93-6.27-23.11-9.09-33.43-7.22-26.43-14.24-51.83-20.87-75.5a.9.9,0,0,1-.06-.22c-.73-2.62-1.12-4-1.12-4a2.76,2.76,0,0,1,5.31-1.5s.39,1.38,1.13,4a.25.25,0,0,1,0,.07c6.64,23.71,13.68,49.15,20.91,75.63,2.82,10.33,5.86,21.52,9.09,33.44,8.38,31,14.07,61.28,20.09,93.34,6.2,33,13.22,70.39,24.4,115.07a2.76,2.76,0,0,1-2,3.34A2.56,2.56,0,0,1,2038.72,1546.18Z"/><path class="cls-6" d="M2006,1355.22c-2.56-7.66-4.53-13.59-5.81-17.42-.29-.86-.54-1.62-.75-2.27-7.6-23-12.65-35.49-14.26-33.89-3.12,3.08-9.44,14.57-19.57,30.89q-1.77,2.87-3.71,5.91c-3.25,5.14-6.85,10.67-10.79,16.49-30,44.22-80.36,105.39-157.84,143.19a278.1,278.1,0,0,1-48.65,18.22h0c-2,.55-3.92,1.05-5.85,1.55-35.71,8.92-64.61,8.52-68.28,1.3l0,.15,0,.23v0l13.76,145.4c24.72,4.6,51,10.11,79.34,16.58,77.54,17.74,147.2,20.42,207.74,12.51,51.8-6.77,96.94-21.27,134.64-40.75C2068.49,1541.64,2023.5,1407.6,2006,1355.22Z"/><path class="cls-6" d="M1786.31,1031a2.76,2.76,0,0,1-2.3-4.27c9.73-14.87,26.35-17.7,33.44-18.9.91-.16,1.94-.33,2.37-.45a2.76,2.76,0,0,1,3.39,4.3c-.91.92-2.06,1.11-4.83,1.58-6.93,1.18-21.34,3.64-29.75,16.49A2.77,2.77,0,0,1,1786.31,1031Zm33-23.2Z"/><path class="cls-6" d="M1820.59,1168.65l-353.33,67.2c-19.1,3.64-37.71-10.28-41.58-31.08L1297.32,514c-3.86-20.81,8.49-40.61,27.59-44.25l353.33-67.21c19.1-3.63,37.71,10.29,41.58,31.09l128.36,690.77C1852,1145.2,1839.69,1165,1820.59,1168.65Z"/><path class="cls-1" d="M1801.73,1171.61l-358,68.09c-17.81,3.39-35.18-9.59-38.78-29L1275.88,516.07c-3.6-19.4,7.92-37.87,25.73-41.26l358-68.1c17.81-3.39,35.18,9.6,38.78,29l129.08,694.63C1831.06,1149.75,1819.54,1168.22,1801.73,1171.61Z"/><path class="cls-8" d="M1753.61,732.93l-.06-.34,0-.1,0-.16,0-.32,0,0v0l-3.46-9.49,2.12,11.49,1.37.39h.06l.34.09h0Zm0,0-.06-.34,0-.1,0-.16,0-.32,0,0v0l-3.46-9.49,2.12,11.49,1.37.39h.06l.34.09h0ZM1829.12,1130l-14.75-79.34h0l-.55-3-.74-4-5.71-30.69-.43-2.37h0l-25.27-136-.28-1.52-5.92-31.88,0,0-7-37.5-11.52-62,0-.09L1755.7,735v0L1751,709.32v-.1L1745.3,679l-13.45-72.4-.52-2.74L1700,435.39c-3.18-17.12-16.6-29.48-31.89-30.92h0a0,0,0,0,1,0,0h0a31.72,31.72,0,0,0-8.83.43l-358,68.09c-18.7,3.57-30.84,23-27.06,43.39l73.84,397.37,15.8,85,5.47,29.44,17.83,95.9h0l5.3,28.58.93,5L1399,1188h0l4.27,23c3.78,20.37,22.08,34,40.78,30.5l13.06-2.5,142.72-27.15h0L1749,1183.51l53.06-10.1a31.37,31.37,0,0,0,4.86-1.33h0a30.45,30.45,0,0,0,3.47-1.49h0C1824.24,1163.64,1832.3,1147.15,1829.12,1130Zm-24.85,39.07a25,25,0,0,1-2.87.7l-52.05,9.9-150.78,28.69-137.69,26.19-6.26,1.19h0l-11.2,2.13c-16.87,3.21-33.37-9.13-36.78-27.5l-4.61-24.8-5.33-28.73-1.93-10.37h0l-4.94-26.51-17.65-95-5.64-30.36v0l-15.17-81.64-73.8-397.15c-3.42-18.37,7.53-35.93,24.4-39.13l11.2-2.14h0l346.76-66c16.86-3.2,33.36,9.13,36.79,27.51l31.11,167.46.56,3v0l13.27,71.4.1.54,0,.12,8.14,43.81,0,.08,2.12,11.49h0l13.12,70.63,6.23,33.5h0l6.14,33,.32,1.74h0l23.48,126.32v0l2.78,14.93,5.45,29.31h0l.71,3.86.23,1.21,15.26,82.12C1829,1148,1819.48,1164.55,1804.27,1169.09Zm-50.66-436.16-.06-.34,0-.1,0-.16,0-.32,0,0v0l-3.46-9.49,2.12,11.49,1.37.39h.06l.34.09h0Z"/><path class="cls-6" d="M1438.71,1179.1a17.82,17.82,0,0,1-10-3.17,20.63,20.63,0,0,1-8.48-13.26L1302.47,529.18c-2-10.78,4.48-21.09,14.45-23l339.66-64.61a17.55,17.55,0,0,1,13.26,2.87,20.64,20.64,0,0,1,8.48,13.25L1796,1091.2c2,10.77-4.48,21.09-14.45,23l-339.66,64.61A16.62,16.62,0,0,1,1438.71,1179.1Zm221.08-734.41a13.89,13.89,0,0,0-2.57.24l-339.66,64.61c-8.14,1.55-13.4,10.08-11.74,19l117.72,633.5a17.18,17.18,0,0,0,7,11.06,14.18,14.18,0,0,0,10.7,2.33l339.66-64.61c8.14-1.54,13.4-10.07,11.74-19L1675,458.32h0a17.21,17.21,0,0,0-7-11.06A14.41,14.41,0,0,0,1659.79,444.69Z"/><path class="cls-8" d="M1477.91,462.07c-.72-3.86,1.57-7.55,5.13-8.22s7,1.91,7.73,5.78-1.58,7.55-5.13,8.22S1478.63,465.94,1477.91,462.07Z"/><path class="cls-1" d="M1651.59,1179.59l-65.1,12.38c-4.38.84-8.7-2.39-9.58-7.16l-1.35-7.24c-.88-4.77,2-9.36,6.36-10.19L1647,1155c4.39-.83,8.7,2.39,9.59,7.17l1.34,7.23C1658.84,1174.17,1656,1178.76,1651.59,1179.59Z"/><path class="cls-8" d="M1659.61,1169.07l-1.34-7.23c-1.08-5.78-6.27-9.67-11.58-8.67l-59.21,11.26-5.9,1.13c-5.31,1-8.75,6.54-7.67,12.33l1.34,7.23c1.08,5.79,6.27,9.67,11.59,8.66l6.66-1.27,58.43-11.11C1657.25,1180.39,1660.69,1174.86,1659.61,1169.07Zm-81,15.42-1.35-7.24a6.78,6.78,0,0,1,5-8.07l5.81-1.11,59.29-11.28c3.47-.66,6.88,1.89,7.59,5.68l1.35,7.23a6.78,6.78,0,0,1-5,8.08l-58.72,11.16-6.39,1.22C1582.68,1190.83,1579.28,1188.28,1578.57,1184.49Z"/><g class="cls-9"><path class="cls-10" d="M1578.69,458.13,1334.94,694.59l-30.79-165.73c-1.84-9.87,4-19.27,13.09-21Z"/></g><g class="cls-9"><path class="cls-10" d="M1748.15,842.86l46.21,248.65c1.83,9.87-4,19.27-13.1,21l-339.66,64.61c-9.07,1.72-17.91-4.89-19.74-14.76l-4.1-22Z"/></g><g class="cls-9"><path class="cls-10" d="M1676.64,458l13.87,74.66L1372.13,894.72l-24.89-134L1648.6,444.83l8.3-1.57C1666,441.53,1674.81,448.13,1676.64,458Z"/></g><path class="cls-1" d="M1866.33,1305.17s72.52,54.65,80.61,23.1c27.78-108.35-40.91-184.33-83.15-234.32-27.4-32.41-194.72-170-212.83-130.32-11,24.08,32.72,74.59,65.8,120,21.42,29.38,36.06,58.32,36.37,70.75.64,25.89-6.59,54.08,1.43,72.14C1784.88,1294.8,1866.33,1305.17,1866.33,1305.17Z"/><path class="cls-6" d="M1866.33,1307.93l-.44,0c-2.8-.45-69.1-11.55-102.11-58.14-16-22.59-21.29-49.7-15.71-80.59,6.62-36.6-24-73.1-53.57-108.39-29.09-34.69-56.56-67.46-46.15-98a12.93,12.93,0,0,1,10.12-8.8c40-8.32,187.23,116.52,210.93,142.59a2.76,2.76,0,0,1-4.08,3.71c-12-13.19-53.18-49.76-99.33-84.11-53.42-39.78-91.21-59.94-106.4-56.79a7.37,7.37,0,0,0-6,5.18c-9.41,27.63,17.1,59.25,45.16,92.71,30.4,36.27,61.85,73.77,54.77,112.92-5.31,29.38-.34,55.09,14.77,76.42,31.69,44.72,97.83,55.77,98.5,55.88a2.76,2.76,0,0,1-.44,5.48Z"/><path class="cls-6" d="M1417.2,610.54l-8.77-47.42a4.52,4.52,0,0,0-5.25-3.61l-2.71.5a4.51,4.51,0,0,0-3.61,5.24l4.84,26.14a1.87,1.87,0,0,1-3.23,1.58l-23.35-26.08a4.52,4.52,0,0,0-4.17-1.43l-4.68.88a4.48,4.48,0,0,0-3.61,5.24l8.77,47.43a4.5,4.5,0,0,0,5.25,3.61l2.74-.51a4.52,4.52,0,0,0,3.61-5.25l-5.36-29a1,1,0,0,1,1.81-.88l25.25,28.2a4.48,4.48,0,0,0,4.17,1.42l4.69-.86A4.51,4.51,0,0,0,1417.2,610.54Z"/><path class="cls-6" d="M1465.05,601.7l-.08-.46a4.52,4.52,0,0,0-5.25-3.62l-17.28,3.2a4.49,4.49,0,0,1-5.24-3.6l-.28-1.55-.87-4.68a4.5,4.5,0,0,1,3.61-5.25l9.25-1.71,4.16-.77a4.5,4.5,0,0,0,3.61-5.24l0-.23a4.88,4.88,0,0,0-.3-1h0a4.51,4.51,0,0,0-4.95-2.64L1438,576.66a4.52,4.52,0,0,1-5.26-3.61l-.83-4.55a4.49,4.49,0,0,1,3.61-5.25l17.19-3.18a4.51,4.51,0,0,0,3.61-5.25l-.09-.54a4.5,4.5,0,0,0-5.26-3.6L1422.16,556a4.52,4.52,0,0,0-3.61,5.25l8.19,44.3.58,3.14a4.5,4.5,0,0,0,5.25,3.6l28.87-5.34A4.5,4.5,0,0,0,1465.05,601.7Z"/><path class="cls-6" d="M1519.71,538l-2.36.45a4.49,4.49,0,0,0-3.68,4.4l-.11,24.47a2.79,2.79,0,0,1-5.34,1.09l-9.94-22.89a4.49,4.49,0,0,0-4.94-2.64l-2.42.45h0l-.35.07a4.49,4.49,0,0,0-3.63,3.8c0,.14,0,.28,0,.43l-1.14,24.9a2.79,2.79,0,0,1-5.39.89l-5.6-14.41-3.25-8.37a4.52,4.52,0,0,0-5-2.79l-2.38.45a4.49,4.49,0,0,0-3.32,6.18l5.43,12.81,13.86,32.67a4.48,4.48,0,0,0,5,2.66l4.64-.85a4.51,4.51,0,0,0,3.68-4.17l1-17.34a4.51,4.51,0,0,1,8.62-1.6l5.76,12.88,1.34,3a4.49,4.49,0,0,0,4.92,2.59l4.65-.87a4.5,4.5,0,0,0,3.68-4.26l.57-16.32,1.17-33.06A4.5,4.5,0,0,0,1519.71,538Z"/><path class="cls-6" d="M1580,569.68a14.82,14.82,0,0,0-6.8-10.31,24.58,24.58,0,0,0-6.56-2.85,55.19,55.19,0,0,0-8.69-1.68,33.26,33.26,0,0,1-9-2,7.8,7.8,0,0,1-2.15-1.34,5,5,0,0,1-1.55-2.8,6.22,6.22,0,0,1,.08-2.65,6,6,0,0,1,1.29-2.4,8,8,0,0,1,2.52-1.91,14.21,14.21,0,0,1,3.87-1.23,13,13,0,0,1,4.21-.16l.18,0h0a7.77,7.77,0,0,1,3,1.1,6.91,6.91,0,0,1,2.2,2.27l.12.19a4.53,4.53,0,0,0,4.77,2.31l2.68-.49a4.47,4.47,0,0,0,3.13-6.59c-.21-.38-.45-.73-.69-1.08a16.12,16.12,0,0,0-5.19-4.73,19.93,19.93,0,0,0-2.27-1.12h0a21.38,21.38,0,0,0-4.92-1.29,26.77,26.77,0,0,0-8.74.27,29.49,29.49,0,0,0-8.17,2.69,21.33,21.33,0,0,0-6,4.4,14.68,14.68,0,0,0-3.38,5.77,13.78,13.78,0,0,0-.33,6.71,13.31,13.31,0,0,0,2.67,6.14,15.47,15.47,0,0,0,2.75,2.67,16.73,16.73,0,0,0,2.21,1.43,27.14,27.14,0,0,0,6.66,2.56,72.07,72.07,0,0,0,7.8,1.43,53.61,53.61,0,0,1,5.93,1,15.37,15.37,0,0,1,3.73,1.35,5.28,5.28,0,0,1,2,1.88,7.9,7.9,0,0,1,.92,2.57,6.29,6.29,0,0,1,0,2.63,5.6,5.6,0,0,1-1.23,2.33,8.17,8.17,0,0,1-2.51,1.84,14.16,14.16,0,0,1-3.8,1.2,19.69,19.69,0,0,1-4.66.34,9.5,9.5,0,0,1-3.8-1,7.69,7.69,0,0,1-2.79-2.46,9.32,9.32,0,0,1-.61-1,4.49,4.49,0,0,0-4.85-2.44l-2.67.49a4.47,4.47,0,0,0-3.17,6.5l0,.06a16.34,16.34,0,0,0,3.37,4.19,17.47,17.47,0,0,0,4.43,2.85,23,23,0,0,0,5.17,1.65,27,27,0,0,0,5.59.51,33.38,33.38,0,0,0,5.65-.55,31.16,31.16,0,0,0,8.21-2.62,19.49,19.49,0,0,0,5.87-4.24,14,14,0,0,0,3.22-5.65A15,15,0,0,0,1580,569.68Z"/><path class="cls-6" d="M1618.1,850.51l-195.86,36.54a4.38,4.38,0,0,1-5.09-3.49h0a4.38,4.38,0,0,1,3.49-5.09l195.86-36.54a4.38,4.38,0,0,1,5.09,3.49h0A4.38,4.38,0,0,1,1618.1,850.51Z"/><path class="cls-6" d="M1634.82,932.52l-195.76,37.09a4.37,4.37,0,0,1-5.1-3.47h0a4.38,4.38,0,0,1,3.48-5.1l195.75-37.1a4.38,4.38,0,0,1,5.1,3.48h0A4.37,4.37,0,0,1,1634.82,932.52Z"/><rect class="cls-6" x="1423.07" y="896.79" width="124.22" height="8.73" rx="3.49" transform="translate(-150.28 315.4) rotate(-11.54)"/><path class="cls-6" d="M1641,875.67l-74.18,13.84a4.38,4.38,0,0,1-5.09-3.49h0a4.38,4.38,0,0,1,3.48-5.09l74.19-13.84a4.38,4.38,0,0,1,5.09,3.49h0A4.38,4.38,0,0,1,1641,875.67Z"/><rect class="cls-6" x="1437.43" y="975.27" width="124.22" height="8.73" rx="3.49" transform="translate(-156.17 296.31) rotate(-10.73)"/><path class="cls-6" d="M1606.78,1023.62l-155.53,27.32a4,4,0,0,1-4.67-3.28l-.12-.65a4.05,4.05,0,0,1,3.28-4.67L1605.27,1015a4.05,4.05,0,0,1,4.67,3.27l.11.65A4,4,0,0,1,1606.78,1023.62Z"/><path class="cls-6" d="M1570.68,1055.83l-116,20.37a3.21,3.21,0,0,1-3.71-2.6l-.4-2.28a3.21,3.21,0,0,1,2.6-3.71l116-20.38a3.23,3.23,0,0,1,3.72,2.61l.4,2.27A3.23,3.23,0,0,1,1570.68,1055.83Z"/><rect class="cls-1" x="1417.67" y="658.9" width="245.62" height="131.24" transform="translate(-161.72 747.14) rotate(-25.95)"/><path class="cls-6" d="M1458.08,839.24l-58.73-120.67,1.34-.65L1622.87,609.8l58.73,120.67-1.33.64Zm-54.76-119.3,56.13,115.34L1677.63,729.1,1621.5,613.76Z"/><polygon class="cls-6" points="1460.05 838 1457.48 836.52 1531.84 706.78 1679.83 728.32 1679.4 731.25 1533.41 710 1460.05 838"/><polygon class="cls-2" points="1401.82 719.49 1546.46 736.06 1622.67 612.01 1401.82 719.49"/><g class="cls-11"><path class="cls-2" d="M1521.73,694.56a1.61,1.61,0,1,1,.59,2.2A1.61,1.61,0,0,1,1521.73,694.56Z"/><path class="cls-2" d="M1526.13,702.22a1.61,1.61,0,1,1,.59,2.2A1.61,1.61,0,0,1,1526.13,702.22Z"/><path class="cls-2" d="M1529.18,693.7a1.61,1.61,0,0,1,2.79,1.61,1.61,1.61,0,0,1-2.79-1.61Z"/><path class="cls-2" d="M1516.12,704.31a1.61,1.61,0,1,1,.6,2.2A1.61,1.61,0,0,1,1516.12,704.31Z"/><path class="cls-2" d="M1537.1,700.12a1.61,1.61,0,1,1,.59,2.2A1.62,1.62,0,0,1,1537.1,700.12Z"/><path class="cls-2" d="M1523.09,710.74a1.61,1.61,0,1,1,.59,2.2A1.6,1.6,0,0,1,1523.09,710.74Z"/><path class="cls-2" d="M1534.38,711.31a1.61,1.61,0,1,1,.59,2.2A1.6,1.6,0,0,1,1534.38,711.31Z"/><path class="cls-2" d="M1546.51,696.68a1.61,1.61,0,1,1,.59,2.2A1.6,1.6,0,0,1,1546.51,696.68Z"/><path class="cls-2" d="M1550.91,704.34a1.61,1.61,0,1,1,.59,2.2A1.6,1.6,0,0,1,1550.91,704.34Z"/><path class="cls-2" d="M1554,695.82a1.61,1.61,0,1,1,.59,2.2A1.61,1.61,0,0,1,1554,695.82Z"/><path class="cls-2" d="M1540.9,706.43a1.61,1.61,0,1,1,.59,2.2A1.61,1.61,0,0,1,1540.9,706.43Z"/><path class="cls-2" d="M1561.88,702.24a1.61,1.61,0,0,1,2.79,1.6,1.61,1.61,0,1,1-2.79-1.6Z"/><path class="cls-2" d="M1547.86,712.87a1.61,1.61,0,1,1,.59,2.19A1.61,1.61,0,0,1,1547.86,712.87Z"/><path class="cls-2" d="M1559.15,713.43a1.61,1.61,0,1,1,.59,2.2A1.61,1.61,0,0,1,1559.15,713.43Z"/><path class="cls-2" d="M1533.28,718.85a1.61,1.61,0,1,1,.59,2.2A1.61,1.61,0,0,1,1533.28,718.85Z"/><path class="cls-2" d="M1537.68,726.51a1.61,1.61,0,1,1,.59,2.2A1.61,1.61,0,0,1,1537.68,726.51Z"/><path class="cls-2" d="M1540.72,718a1.61,1.61,0,1,1,.6,2.2A1.61,1.61,0,0,1,1540.72,718Z"/><path class="cls-2" d="M1527.67,728.6a1.61,1.61,0,1,1,.59,2.2A1.62,1.62,0,0,1,1527.67,728.6Z"/><path class="cls-2" d="M1548.65,724.41a1.61,1.61,0,1,1,.59,2.19A1.62,1.62,0,0,1,1548.65,724.41Z"/><path class="cls-2" d="M1544.78,737.59a1.61,1.61,0,1,1,.59,2.2A1.6,1.6,0,0,1,1544.78,737.59Z"/><path class="cls-2" d="M1554,732.16a1.61,1.61,0,1,1,.59,2.19A1.62,1.62,0,0,1,1554,732.16Z"/><path class="cls-2" d="M1506.52,713.73a1.61,1.61,0,1,1,.59,2.19A1.61,1.61,0,0,1,1506.52,713.73Z"/><path class="cls-2" d="M1510.92,721.39a1.61,1.61,0,0,1,2.79,1.6,1.61,1.61,0,1,1-2.79-1.6Z"/><path class="cls-2" d="M1514,712.87a1.61,1.61,0,1,1,.59,2.2A1.62,1.62,0,0,1,1514,712.87Z"/><path class="cls-2" d="M1500.91,723.47a1.61,1.61,0,1,1,.59,2.2A1.61,1.61,0,0,1,1500.91,723.47Z"/><path class="cls-2" d="M1521.89,719.28a1.61,1.61,0,1,1,.59,2.2A1.6,1.6,0,0,1,1521.89,719.28Z"/><path class="cls-2" d="M1525.77,738.35a1.61,1.61,0,1,1,.59,2.2A1.61,1.61,0,0,1,1525.77,738.35Z"/><path class="cls-2" d="M1519.16,730.48a1.61,1.61,0,1,1,.59,2.19A1.62,1.62,0,0,1,1519.16,730.48Z"/><path class="cls-2" d="M1536.43,674.64a1.61,1.61,0,1,1,.59,2.19A1.61,1.61,0,0,1,1536.43,674.64Z"/><path class="cls-2" d="M1540.83,682.3a1.61,1.61,0,1,1,.59,2.2A1.61,1.61,0,0,1,1540.83,682.3Z"/><path class="cls-2" d="M1545.67,668.25a1.61,1.61,0,1,1,.6,2.2A1.62,1.62,0,0,1,1545.67,668.25Z"/><path class="cls-2" d="M1530.82,684.38a1.61,1.61,0,1,1,.59,2.2A1.61,1.61,0,0,1,1530.82,684.38Z"/><path class="cls-2" d="M1551.8,680.19a1.61,1.61,0,1,1,.59,2.2A1.61,1.61,0,0,1,1551.8,680.19Z"/><path class="cls-2" d="M1537.78,690.82a1.61,1.61,0,1,1,.6,2.2A1.61,1.61,0,0,1,1537.78,690.82Z"/><path class="cls-2" d="M1549.07,691.39a1.61,1.61,0,1,1,.6,2.19A1.62,1.62,0,0,1,1549.07,691.39Z"/><path class="cls-2" d="M1566.85,718.66a1.61,1.61,0,1,1,.59,2.19A1.59,1.59,0,0,1,1566.85,718.66Z"/><path class="cls-2" d="M1571.25,726.32a1.61,1.61,0,0,1,2.79,1.6,1.61,1.61,0,1,1-2.79-1.6Z"/><path class="cls-2" d="M1574.29,717.8a1.61,1.61,0,1,1,2.79,1.6,1.61,1.61,0,0,1-2.79-1.6Z"/><path class="cls-2" d="M1556.38,721.48a1.61,1.61,0,1,1,.59,2.2A1.61,1.61,0,0,1,1556.38,721.48Z"/><path class="cls-2" d="M1580,711.05a1.61,1.61,0,1,1,.59,2.2A1.61,1.61,0,0,1,1580,711.05Z"/><path class="cls-2" d="M1568.2,734.84a1.61,1.61,0,1,1,.59,2.2A1.61,1.61,0,0,1,1568.2,734.84Z"/><path class="cls-2" d="M1579.49,735.41a1.61,1.61,0,1,1,2.79,1.6,1.61,1.61,0,0,1-2.79-1.6Z"/><path class="cls-2" d="M1558.16,685.28a1.61,1.61,0,1,1,.59,2.2A1.61,1.61,0,0,1,1558.16,685.28Z"/><path class="cls-2" d="M1572.14,690a1.6,1.6,0,0,1,2.19-.59,1.61,1.61,0,1,1-1.6,2.79A1.6,1.6,0,0,1,1572.14,690Z"/><path class="cls-2" d="M1586.56,696.47a1.61,1.61,0,1,1,.59,2.2A1.61,1.61,0,0,1,1586.56,696.47Z"/><path class="cls-2" d="M1562.13,692.12a1.61,1.61,0,1,1,.59,2.2A1.61,1.61,0,0,1,1562.13,692.12Z"/><path class="cls-2" d="M1570,678.51a1.61,1.61,0,1,1,.59,2.2A1.61,1.61,0,0,1,1570,678.51Z"/><path class="cls-2" d="M1569.09,698.56a1.61,1.61,0,1,1,.59,2.19A1.62,1.62,0,0,1,1569.09,698.56Z"/><path class="cls-2" d="M1568.83,709.52a1.61,1.61,0,1,1,.59,2.2A1.61,1.61,0,0,1,1568.83,709.52Z"/><path class="cls-2" d="M1512.48,667.85a1.61,1.61,0,1,1,.59,2.2A1.61,1.61,0,0,1,1512.48,667.85Z"/><path class="cls-2" d="M1502.62,685a1.61,1.61,0,0,1,2.79,1.61,1.59,1.59,0,0,1-2.19.59A1.61,1.61,0,0,1,1502.62,685Z"/><path class="cls-2" d="M1525.12,675.75a1.61,1.61,0,1,1,.6,2.2A1.62,1.62,0,0,1,1525.12,675.75Z"/><path class="cls-2" d="M1504.32,705.46a1.61,1.61,0,1,1,.59,2.2A1.61,1.61,0,0,1,1504.32,705.46Z"/><path class="cls-2" d="M1513.59,682.88a1.61,1.61,0,1,1,.6,2.2A1.61,1.61,0,0,1,1513.59,682.88Z"/><path class="cls-2" d="M1494.19,699.64a1.61,1.61,0,1,1,.6,2.2A1.61,1.61,0,0,1,1494.19,699.64Z"/><path class="cls-2" d="M1510.87,694.07a1.61,1.61,0,1,1,.59,2.2A1.61,1.61,0,0,1,1510.87,694.07Z"/><path class="cls-2" d="M1539.45,667.64a1.61,1.61,0,1,1,.6,2.2A1.62,1.62,0,0,1,1539.45,667.64Z"/><path class="cls-2" d="M1543.86,675.3a1.61,1.61,0,1,1,2.79,1.6,1.61,1.61,0,0,1-2.79-1.6Z"/><path class="cls-2" d="M1546.89,666.77a1.61,1.61,0,1,1,.6,2.2A1.61,1.61,0,0,1,1546.89,666.77Z"/><path class="cls-2" d="M1533.85,677.4a1.61,1.61,0,1,1,.6,2.19A1.61,1.61,0,0,1,1533.85,677.4Z"/><path class="cls-2" d="M1554.83,673.18a1.61,1.61,0,1,1,.59,2.2A1.61,1.61,0,0,1,1554.83,673.18Z"/><path class="cls-2" d="M1540.83,683.82a1.61,1.61,0,1,1,.59,2.2A1.59,1.59,0,0,1,1540.83,683.82Z"/><path class="cls-2" d="M1552.12,684.38a1.6,1.6,0,0,1,2.19-.6,1.61,1.61,0,1,1-1.6,2.79A1.59,1.59,0,0,1,1552.12,684.38Z"/><path class="cls-2" d="M1564.23,669.73a1.61,1.61,0,1,1,.59,2.2A1.6,1.6,0,0,1,1564.23,669.73Z"/><path class="cls-2" d="M1568.64,677.39a1.61,1.61,0,1,1,.59,2.2A1.61,1.61,0,0,1,1568.64,677.39Z"/><path class="cls-2" d="M1571.67,668.86a1.61,1.61,0,1,1,.6,2.2A1.61,1.61,0,0,1,1571.67,668.86Z"/><path class="cls-2" d="M1558.63,679.49a1.61,1.61,0,1,1,.6,2.2A1.62,1.62,0,0,1,1558.63,679.49Z"/><path class="cls-2" d="M1579.6,675.27a1.61,1.61,0,1,1,.6,2.2A1.61,1.61,0,0,1,1579.6,675.27Z"/><path class="cls-2" d="M1565.6,685.91a1.61,1.61,0,1,1,.6,2.2A1.61,1.61,0,0,1,1565.6,685.91Z"/><path class="cls-2" d="M1576.89,686.47a1.61,1.61,0,1,1,.6,2.2A1.62,1.62,0,0,1,1576.89,686.47Z"/><path class="cls-2" d="M1551,691.92a1.61,1.61,0,1,1,2.79,1.6,1.61,1.61,0,0,1-2.2.59A1.59,1.59,0,0,1,1551,691.92Z"/><path class="cls-2" d="M1555.44,699.57a1.61,1.61,0,1,1,.59,2.2A1.59,1.59,0,0,1,1555.44,699.57Z"/><path class="cls-2" d="M1558.47,691.05a1.61,1.61,0,1,1,2.79,1.6,1.61,1.61,0,0,1-2.79-1.6Z"/><path class="cls-2" d="M1545.43,701.67a1.61,1.61,0,1,1,.6,2.2A1.61,1.61,0,0,1,1545.43,701.67Z"/><path class="cls-2" d="M1566.4,697.45a1.61,1.61,0,1,1,.6,2.2A1.62,1.62,0,0,1,1566.4,697.45Z"/><path class="cls-2" d="M1562.55,710.65a1.61,1.61,0,1,1,.59,2.19A1.6,1.6,0,0,1,1562.55,710.65Z"/><path class="cls-2" d="M1571.71,705.2a1.61,1.61,0,1,1,.6,2.2A1.62,1.62,0,0,1,1571.71,705.2Z"/><path class="cls-2" d="M1524.26,686.82a1.61,1.61,0,1,1,.59,2.2A1.61,1.61,0,0,1,1524.26,686.82Z"/><path class="cls-2" d="M1528.67,694.48a1.61,1.61,0,0,1,2.79,1.6,1.61,1.61,0,1,1-2.79-1.6Z"/><path class="cls-2" d="M1531.7,686a1.61,1.61,0,1,1,2.79,1.6,1.61,1.61,0,0,1-2.79-1.6Z"/><path class="cls-2" d="M1518.66,696.58a1.61,1.61,0,1,1,.6,2.2A1.62,1.62,0,0,1,1518.66,696.58Z"/><path class="cls-2" d="M1539.63,692.36a1.61,1.61,0,1,1,.6,2.2A1.62,1.62,0,0,1,1539.63,692.36Z"/><path class="cls-2" d="M1543.54,711.43a1.61,1.61,0,1,1,.6,2.19A1.61,1.61,0,0,1,1543.54,711.43Z"/><path class="cls-2" d="M1536.92,703.56a1.61,1.61,0,1,1,.6,2.2A1.62,1.62,0,0,1,1536.92,703.56Z"/><path class="cls-2" d="M1554.12,647.7a1.61,1.61,0,1,1,.6,2.2A1.62,1.62,0,0,1,1554.12,647.7Z"/><path class="cls-2" d="M1558.53,655.36a1.61,1.61,0,1,1,.6,2.19A1.61,1.61,0,0,1,1558.53,655.36Z"/><path class="cls-2" d="M1563.36,641.3a1.61,1.61,0,1,1,.6,2.2A1.61,1.61,0,0,1,1563.36,641.3Z"/><path class="cls-2" d="M1548.53,657.45a1.61,1.61,0,1,1,.59,2.2A1.61,1.61,0,0,1,1548.53,657.45Z"/><path class="cls-2" d="M1569.5,653.24a1.61,1.61,0,1,1,2.79,1.6,1.61,1.61,0,0,1-2.79-1.6Z"/><path class="cls-2" d="M1555.5,663.88a1.61,1.61,0,1,1,.59,2.2A1.6,1.6,0,0,1,1555.5,663.88Z"/><path class="cls-2" d="M1566.79,664.43a1.61,1.61,0,1,1,.6,2.2A1.61,1.61,0,0,1,1566.79,664.43Z"/><path class="cls-2" d="M1584.6,691.68a1.61,1.61,0,1,1,.59,2.2A1.59,1.59,0,0,1,1584.6,691.68Z"/><path class="cls-2" d="M1589,699.34a1.61,1.61,0,1,1,.6,2.2A1.62,1.62,0,0,1,1589,699.34Z"/><path class="cls-2" d="M1592,690.81a1.61,1.61,0,1,1,.59,2.2A1.61,1.61,0,0,1,1592,690.81Z"/><path class="cls-2" d="M1574.13,694.52a1.61,1.61,0,1,1,.6,2.2A1.62,1.62,0,0,1,1574.13,694.52Z"/><path class="cls-2" d="M1597.77,684.06a1.61,1.61,0,1,1,.59,2.2A1.6,1.6,0,0,1,1597.77,684.06Z"/><path class="cls-2" d="M1586,707.86a1.61,1.61,0,1,1,.59,2.2A1.61,1.61,0,0,1,1586,707.86Z"/><path class="cls-2" d="M1597.26,708.42a1.61,1.61,0,1,1,.6,2.2A1.62,1.62,0,0,1,1597.26,708.42Z"/><path class="cls-2" d="M1575.87,658.32a1.61,1.61,0,1,1,.59,2.19A1.6,1.6,0,0,1,1575.87,658.32Z"/><path class="cls-2" d="M1589.85,663.05a1.61,1.61,0,1,1,.59,2.2A1.61,1.61,0,0,1,1589.85,663.05Z"/><path class="cls-2" d="M1604.28,669.48a1.61,1.61,0,1,1,.59,2.19A1.62,1.62,0,0,1,1604.28,669.48Z"/><path class="cls-2" d="M1579.84,665.15a1.61,1.61,0,1,1,.6,2.2A1.62,1.62,0,0,1,1579.84,665.15Z"/><path class="cls-2" d="M1587.66,651.53a1.61,1.61,0,1,1,.59,2.2A1.6,1.6,0,0,1,1587.66,651.53Z"/><path class="cls-2" d="M1586.81,671.58a1.61,1.61,0,1,1,.6,2.2A1.62,1.62,0,0,1,1586.81,671.58Z"/><path class="cls-2" d="M1586.56,682.55a1.61,1.61,0,1,1,.6,2.19A1.61,1.61,0,0,1,1586.56,682.55Z"/><path class="cls-2" d="M1530.17,640.94a1.61,1.61,0,1,1,.59,2.2A1.62,1.62,0,0,1,1530.17,640.94Z"/><path class="cls-2" d="M1520.33,658.09a1.61,1.61,0,1,1,2.79,1.6,1.61,1.61,0,0,1-2.79-1.6Z"/><path class="cls-2" d="M1542.82,648.83a1.61,1.61,0,1,1,2.79,1.6,1.61,1.61,0,0,1-2.79-1.6Z"/><path class="cls-2" d="M1522.05,678.56a1.61,1.61,0,1,1,.59,2.2A1.61,1.61,0,0,1,1522.05,678.56Z"/><path class="cls-2" d="M1531.3,656a1.61,1.61,0,1,1,.59,2.2A1.62,1.62,0,0,1,1531.3,656Z"/><path class="cls-2" d="M1511.92,672.75a1.61,1.61,0,1,1,.59,2.2A1.61,1.61,0,0,1,1511.92,672.75Z"/><path class="cls-2" d="M1528.59,667.17a1.61,1.61,0,1,1,.59,2.19A1.61,1.61,0,0,1,1528.59,667.17Z"/><path class="cls-2" d="M1606.11,645.6a1.61,1.61,0,1,1-2-1.14A1.61,1.61,0,0,1,1606.11,645.6Z"/><path class="cls-2" d="M1597.59,643.26a1.61,1.61,0,1,1-2-1.14A1.61,1.61,0,0,1,1597.59,643.26Z"/><path class="cls-2" d="M1601.43,651.46a1.61,1.61,0,0,1-3.11.82,1.61,1.61,0,1,1,3.11-.82Z"/><path class="cls-2" d="M1603.22,634.73a1.61,1.61,0,1,1-2-1.14A1.62,1.62,0,0,1,1603.22,634.73Z"/><path class="cls-2" d="M1591.29,652.49a1.61,1.61,0,1,1-2-1.14A1.61,1.61,0,0,1,1591.29,652.49Z"/><path class="cls-2" d="M1593.74,635.07a1.61,1.61,0,1,1-2-1.14A1.61,1.61,0,0,1,1593.74,635.07Z"/><path class="cls-2" d="M1585.33,642.63a1.61,1.61,0,1,1-2-1.14A1.61,1.61,0,0,1,1585.33,642.63Z"/><path class="cls-2" d="M1587,661.55a1.61,1.61,0,1,1-2-1.14A1.6,1.6,0,0,1,1587,661.55Z"/><path class="cls-2" d="M1578.52,659.22a1.61,1.61,0,1,1-2-1.14A1.62,1.62,0,0,1,1578.52,659.22Z"/><path class="cls-2" d="M1582.36,667.41a1.61,1.61,0,1,1-2-1.14A1.61,1.61,0,0,1,1582.36,667.41Z"/><path class="cls-2" d="M1584.15,650.69a1.61,1.61,0,1,1-2-1.15A1.62,1.62,0,0,1,1584.15,650.69Z"/><path class="cls-2" d="M1572.22,668.44a1.61,1.61,0,1,1-2-1.14A1.6,1.6,0,0,1,1572.22,668.44Z"/><path class="cls-2" d="M1574.67,651a1.61,1.61,0,1,1-2-1.14A1.61,1.61,0,0,1,1574.67,651Z"/><path class="cls-2" d="M1566.26,658.58a1.61,1.61,0,1,1-2-1.14A1.61,1.61,0,0,1,1566.26,658.58Z"/><path class="cls-2" d="M1580.8,636.51a1.61,1.61,0,1,1-2-1.15A1.61,1.61,0,0,1,1580.8,636.51Z"/><path class="cls-2" d="M1572.28,634.17a1.61,1.61,0,1,1-2-1.14A1.61,1.61,0,0,1,1572.28,634.17Z"/><path class="cls-2" d="M1576.12,642.36a1.61,1.61,0,1,1-2-1.14A1.61,1.61,0,0,1,1576.12,642.36Z"/><path class="cls-2" d="M1577.91,625.64a1.61,1.61,0,1,1-2-1.14A1.62,1.62,0,0,1,1577.91,625.64Z"/><path class="cls-2" d="M1566,643.4a1.61,1.61,0,1,1-2-1.15A1.61,1.61,0,0,1,1566,643.4Z"/><path class="cls-2" d="M1559.43,631.31a1.61,1.61,0,1,1-2-1.14A1.61,1.61,0,0,1,1559.43,631.31Z"/><path class="cls-2" d="M1556.76,641.63a1.61,1.61,0,1,1-2-1.14A1.62,1.62,0,0,1,1556.76,641.63Z"/><path class="cls-2" d="M1603.4,621.28a1.61,1.61,0,1,1-2-1.14A1.62,1.62,0,0,1,1603.4,621.28Z"/><path class="cls-2" d="M1594.87,618.94a1.61,1.61,0,1,1-2-1.14A1.61,1.61,0,0,1,1594.87,618.94Z"/><path class="cls-2" d="M1598.72,627.13a1.61,1.61,0,1,1-2-1.14A1.6,1.6,0,0,1,1598.72,627.13Z"/><path class="cls-2" d="M1600.5,610.41a1.61,1.61,0,1,1-2-1.14A1.61,1.61,0,0,1,1600.5,610.41Z"/><path class="cls-2" d="M1588.58,628.17a1.61,1.61,0,1,1-2-1.14A1.62,1.62,0,0,1,1588.58,628.17Z"/><path class="cls-2" d="M1572.38,617.38a1.61,1.61,0,1,1-2-1.14A1.61,1.61,0,0,1,1572.38,617.38Z"/><path class="cls-2" d="M1582.62,618.31a1.61,1.61,0,1,1-2-1.14A1.61,1.61,0,0,1,1582.62,618.31Z"/><path class="cls-2" d="M1609.73,670.09a1.61,1.61,0,1,1-2-1.14A1.62,1.62,0,0,1,1609.73,670.09Z"/><path class="cls-2" d="M1601.2,667.76a1.61,1.61,0,1,1-2-1.14A1.61,1.61,0,0,1,1601.2,667.76Z"/><path class="cls-2" d="M1607.67,681.13a1.61,1.61,0,1,1-2-1.14A1.61,1.61,0,0,1,1607.67,681.13Z"/><path class="cls-2" d="M1606.83,659.22a1.61,1.61,0,1,1-2-1.14A1.61,1.61,0,0,1,1606.83,659.22Z"/><path class="cls-2" d="M1594.9,677a1.61,1.61,0,1,1-2-1.14A1.61,1.61,0,0,1,1594.9,677Z"/><path class="cls-2" d="M1597.36,659.57a1.61,1.61,0,1,1-2-1.15A1.61,1.61,0,0,1,1597.36,659.57Z"/><path class="cls-2" d="M1589,667.12a1.61,1.61,0,1,1-2-1.14A1.61,1.61,0,0,1,1589,667.12Z"/><path class="cls-2" d="M1557.12,660.3a1.61,1.61,0,1,1-2-1.14A1.61,1.61,0,0,1,1557.12,660.3Z"/><path class="cls-2" d="M1548.6,658a1.61,1.61,0,1,1-2-1.15A1.61,1.61,0,0,1,1548.6,658Z"/><path class="cls-2" d="M1552.45,666.16a1.61,1.61,0,1,1-2-1.14A1.62,1.62,0,0,1,1552.45,666.16Z"/><path class="cls-2" d="M1562.56,650.92a1.61,1.61,0,1,1-2-1.14A1.62,1.62,0,0,1,1562.56,650.92Z"/><path class="cls-2" d="M1553.13,675a1.61,1.61,0,1,1-2-1.14A1.61,1.61,0,0,1,1553.13,675Z"/><path class="cls-2" d="M1544.75,649.78a1.61,1.61,0,0,1-3.11.82,1.61,1.61,0,1,1,3.11-.82Z"/><path class="cls-2" d="M1536.34,657.33a1.61,1.61,0,1,1-2-1.14A1.61,1.61,0,0,1,1536.34,657.33Z"/><path class="cls-2" d="M1586.81,677.86a1.61,1.61,0,1,1-2-1.15A1.61,1.61,0,0,1,1586.81,677.86Z"/><path class="cls-2" d="M1573.54,684.33a1.61,1.61,0,1,1-2-1.14A1.61,1.61,0,0,1,1573.54,684.33Z"/><path class="cls-2" d="M1558.77,689.93a1.61,1.61,0,1,1-2-1.14A1.61,1.61,0,0,1,1558.77,689.93Z"/><path class="cls-2" d="M1579.17,675.8a1.61,1.61,0,1,1-2-1.14A1.61,1.61,0,0,1,1579.17,675.8Z"/><path class="cls-2" d="M1583.21,691a1.61,1.61,0,1,1-2-1.15A1.61,1.61,0,0,1,1583.21,691Z"/><path class="cls-2" d="M1569.7,676.14a1.61,1.61,0,1,1-2-1.14A1.62,1.62,0,0,1,1569.7,676.14Z"/><path class="cls-2" d="M1562.15,668.18a1.61,1.61,0,1,1-2-1.14A1.61,1.61,0,0,1,1562.15,668.18Z"/><path class="cls-2" d="M1631.5,658a1.61,1.61,0,1,1-2-1.14A1.61,1.61,0,0,1,1631.5,658Z"/><path class="cls-2" d="M1626.41,638.92a1.61,1.61,0,1,1-2-1.14A1.6,1.6,0,0,1,1626.41,638.92Z"/><path class="cls-2" d="M1617,661.33a1.61,1.61,0,1,1-2-1.14A1.61,1.61,0,0,1,1617,661.33Z"/><path class="cls-2" d="M1610.78,625.59a1.61,1.61,0,1,1-2-1.14A1.61,1.61,0,0,1,1610.78,625.59Z"/><path class="cls-2" d="M1620.11,648.15a1.61,1.61,0,1,1-2-1.14A1.61,1.61,0,0,1,1620.11,648.15Z"/><path class="cls-2" d="M1622.07,622.59a1.61,1.61,0,1,1-2-1.14A1.62,1.62,0,0,1,1622.07,622.59Z"/><path class="cls-2" d="M1614.16,638.29a1.61,1.61,0,1,1-2-1.14A1.61,1.61,0,0,1,1614.16,638.29Z"/><path class="cls-2" d="M1580.45,605.94a1.61,1.61,0,1,1-.24,2.26A1.6,1.6,0,0,1,1580.45,605.94Z"/><path class="cls-2" d="M1581.8,614.67a1.61,1.61,0,1,1-.23,2.26A1.62,1.62,0,0,1,1581.8,614.67Z"/><path class="cls-2" d="M1587.7,607.81a1.61,1.61,0,1,1-.23,2.26A1.61,1.61,0,0,1,1587.7,607.81Z"/><path class="cls-2" d="M1571.72,613a1.61,1.61,0,1,1-.24,2.27A1.61,1.61,0,0,1,1571.72,613Z"/><path class="cls-2" d="M1592.8,616.64a1.61,1.61,0,1,1-.24,2.26A1.6,1.6,0,0,1,1592.8,616.64Z"/><path class="cls-2" d="M1575.91,621.53a1.61,1.61,0,1,1-.24,2.26A1.6,1.6,0,0,1,1575.91,621.53Z"/><path class="cls-2" d="M1586.24,626.11a1.61,1.61,0,1,1-.23,2.26A1.6,1.6,0,0,1,1586.24,626.11Z"/><path class="cls-2" d="M1602.81,616.81a1.61,1.61,0,1,1-.23,2.26A1.62,1.62,0,0,1,1602.81,616.81Z"/><path class="cls-2" d="M1604.17,625.54a1.61,1.61,0,1,1-.24,2.26A1.6,1.6,0,0,1,1604.17,625.54Z"/><path class="cls-2" d="M1610.07,618.67a1.61,1.61,0,1,1-.24,2.27A1.61,1.61,0,0,1,1610.07,618.67Z"/><path class="cls-2" d="M1594.08,623.89a1.61,1.61,0,1,1-.24,2.27A1.61,1.61,0,0,1,1594.08,623.89Z"/><path class="cls-2" d="M1615.16,627.51a1.61,1.61,0,1,1-.23,2.26A1.62,1.62,0,0,1,1615.16,627.51Z"/><path class="cls-2" d="M1598.27,632.4a1.61,1.61,0,1,1-.24,2.26A1.6,1.6,0,0,1,1598.27,632.4Z"/><path class="cls-2" d="M1608.6,637a1.61,1.61,0,1,1-.23,2.26A1.62,1.62,0,0,1,1608.6,637Z"/><path class="cls-2" d="M1582.51,632.75a1.61,1.61,0,1,1-.23,2.27A1.62,1.62,0,0,1,1582.51,632.75Z"/><path class="cls-2" d="M1583.87,641.48a1.61,1.61,0,1,1-.24,2.27A1.61,1.61,0,0,1,1583.87,641.48Z"/><path class="cls-2" d="M1589.77,634.62a1.61,1.61,0,0,1,2,2.5,1.61,1.61,0,1,1-2-2.5Z"/><path class="cls-2" d="M1573.78,639.84a1.61,1.61,0,1,1-.24,2.26A1.6,1.6,0,0,1,1573.78,639.84Z"/><path class="cls-2" d="M1594.86,643.45a1.61,1.61,0,1,1-.23,2.27A1.62,1.62,0,0,1,1594.86,643.45Z"/><path class="cls-2" d="M1586.52,654.37a1.61,1.61,0,1,1-.24,2.27A1.61,1.61,0,0,1,1586.52,654.37Z"/><path class="cls-2" d="M1597,652.59a1.61,1.61,0,1,1-.23,2.26A1.62,1.62,0,0,1,1597,652.59Z"/><path class="cls-2" d="M1559.37,618.37a1.61,1.61,0,1,1-.24,2.26A1.6,1.6,0,0,1,1559.37,618.37Z"/><path class="cls-2" d="M1560.73,627.1a1.61,1.61,0,1,1-.24,2.26A1.6,1.6,0,0,1,1560.73,627.1Z"/><path class="cls-2" d="M1566.63,620.24a1.61,1.61,0,1,1-.24,2.26A1.6,1.6,0,0,1,1566.63,620.24Z"/><path class="cls-2" d="M1550.64,625.45a1.61,1.61,0,1,1-.24,2.27A1.61,1.61,0,0,1,1550.64,625.45Z"/><path class="cls-2" d="M1571.72,629.07a1.61,1.61,0,1,1-.23,2.26A1.6,1.6,0,0,1,1571.72,629.07Z"/><path class="cls-2" d="M1568.51,648.26a1.61,1.61,0,1,1-.24,2.27A1.61,1.61,0,0,1,1568.51,648.26Z"/><path class="cls-2" d="M1565.16,638.54a1.61,1.61,0,1,1-.23,2.26A1.62,1.62,0,0,1,1565.16,638.54Z"/><path class="cls-2" d="M1601.31,592.61a1.61,1.61,0,1,1-.23,2.27A1.62,1.62,0,0,1,1601.31,592.61Z"/><path class="cls-2" d="M1602.67,601.34a1.61,1.61,0,1,1-.23,2.27A1.62,1.62,0,0,1,1602.67,601.34Z"/><path class="cls-2" d="M1612.23,590a1.61,1.61,0,1,1-.23,2.26A1.62,1.62,0,0,1,1612.23,590Z"/><path class="cls-2" d="M1592.58,599.7a1.61,1.61,0,1,1-.23,2.26A1.62,1.62,0,0,1,1592.58,599.7Z"/><path class="cls-2" d="M1613.67,603.31a1.61,1.61,0,1,1-.24,2.27A1.61,1.61,0,0,1,1613.67,603.31Z"/><path class="cls-2" d="M1596.77,608.2a1.61,1.61,0,1,1-.23,2.27A1.62,1.62,0,0,1,1596.77,608.2Z"/><path class="cls-2" d="M1607.11,612.78a1.61,1.61,0,1,1-.24,2.27A1.61,1.61,0,0,1,1607.11,612.78Z"/><path class="cls-2" d="M1613.91,644.61a1.61,1.61,0,1,1-.23,2.27A1.62,1.62,0,0,1,1613.91,644.61Z"/><path class="cls-2" d="M1615.27,653.35a1.61,1.61,0,1,1-.23,2.26A1.61,1.61,0,0,1,1615.27,653.35Z"/><path class="cls-2" d="M1621.17,646.48a1.61,1.61,0,1,1-.23,2.27A1.62,1.62,0,0,1,1621.17,646.48Z"/><path class="cls-2" d="M1603.13,643.49a1.61,1.61,0,1,1-.24,2.27A1.61,1.61,0,0,1,1603.13,643.49Z"/><path class="cls-2" d="M1629,642.25a1.61,1.61,0,1,1-.24,2.26A1.6,1.6,0,0,1,1629,642.25Z"/><path class="cls-2" d="M1609.37,660.21a1.61,1.61,0,1,1-.23,2.26A1.62,1.62,0,0,1,1609.37,660.21Z"/><path class="cls-2" d="M1619.71,664.79a1.61,1.61,0,1,1-.24,2.26A1.6,1.6,0,0,1,1619.71,664.79Z"/><path class="cls-2" d="M1617.78,610.34a1.61,1.61,0,1,1-.24,2.27A1.61,1.61,0,0,1,1617.78,610.34Z"/><path class="cls-2" d="M1629.12,619.8a1.61,1.61,0,1,1-.24,2.26A1.6,1.6,0,0,1,1629.12,619.8Z"/><path class="cls-2" d="M1640.27,631a1.61,1.61,0,1,1-.23,2.27A1.61,1.61,0,0,1,1640.27,631Z"/><path class="cls-2" d="M1619,618.15a1.61,1.61,0,1,1-.24,2.27A1.61,1.61,0,0,1,1619,618.15Z"/><path class="cls-2" d="M1631.22,608.26a1.61,1.61,0,1,1-.23,2.26A1.62,1.62,0,0,1,1631.22,608.26Z"/><path class="cls-2" d="M1623.22,626.66a1.61,1.61,0,1,1-.24,2.26A1.6,1.6,0,0,1,1623.22,626.66Z"/><path class="cls-2" d="M1619,636.8a1.61,1.61,0,1,1-.24,2.26A1.6,1.6,0,0,1,1619,636.8Z"/><path class="cls-2" d="M1581.4,577.68a1.61,1.61,0,1,1-.24,2.27A1.61,1.61,0,0,1,1581.4,577.68Z"/><path class="cls-2" d="M1566.05,590.14a1.61,1.61,0,1,1-.24,2.27A1.61,1.61,0,0,1,1566.05,590.14Z"/><path class="cls-2" d="M1590.36,589.6a1.61,1.61,0,1,1-.23,2.26A1.62,1.62,0,0,1,1590.36,589.6Z"/><path class="cls-2" d="M1560.28,609.86a1.61,1.61,0,1,1-.23,2.27A1.61,1.61,0,0,1,1560.28,609.86Z"/><path class="cls-2" d="M1577,592.11a1.61,1.61,0,1,1-.23,2.27A1.62,1.62,0,0,1,1577,592.11Z"/><path class="cls-2" d="M1552.92,600.8a1.61,1.61,0,1,1-.24,2.26A1.6,1.6,0,0,1,1552.92,600.8Z"/><path class="cls-2" d="M1570.48,601.58a1.61,1.61,0,1,1-.23,2.27A1.62,1.62,0,0,1,1570.48,601.58Z"/></g><path class="cls-6" d="M1546,737.31h-.17l-144.64-16.57a1.48,1.48,0,0,1-.48-2.81l220.85-107.47a1.48,1.48,0,0,1,1.91,2.1L1547.24,736.6A1.49,1.49,0,0,1,1546,737.31Zm-139.42-18.95,138.65,15.88,73-118.9Z"/><circle class="cls-4" cx="1622.19" cy="615.95" r="26.34" transform="translate(-112.23 667.67) rotate(-22.5)"/><path class="cls-1" d="M1245,938.69s-39.32,15.48-67.74,23.25l10.13-88.81Z"/><path class="cls-1" d="M1245,938.69c15.37-5.93,38.92-37.13,15.56-75.51-8.31-13.65-66.27-41.28-74.15,30.09C1180,951.36,1223.61,946.91,1245,938.69Z"/><path class="cls-8" d="M1220.45,944.77c-8.36,0-16.5-1.9-22.88-6.82-10.65-8.21-14.85-23.29-12.47-44.82,3.77-34.19,18.89-44.55,30.91-47.22,19.09-4.23,40.67,8.52,45.59,16.61,12.84,21.1,11,38.77,7.25,49.88-5,14.66-15.37,24.36-23.44,27.47A71.46,71.46,0,0,1,1220.45,944.77Zm3.64-97.18a34.78,34.78,0,0,0-7.53.8c-16.07,3.57-26.08,19.14-28.94,45-2.27,20.59,1.6,34.9,11.5,42.52,8,6.14,24.07,9.78,45.37,1.57h0c7.28-2.8,17.26-12.11,22-25.92,3.6-10.59,5.31-27.47-7-47.74C1255.46,857.33,1239.85,847.59,1224.09,847.59Z"/><path class="cls-1" d="M1248,1038c13.35-9.66,32.57-54,.16-85.13-11.53-11.07-61.47-19-69.68,38.88S1229.51,1051.46,1248,1038Z"/><path class="cls-8" d="M1222.32,1046.21c-9.22,0-18.9-2.09-26.89-6.91-10.48-6.32-22.14-19.71-18.18-47.68,4.26-30,19.36-41.25,31.28-45.37,16.58-5.73,34.2-.34,40.54,5.74a57.25,57.25,0,0,1,18,46.48c-1,14.14-8.1,33.2-18.32,40.6h0C1242.64,1043.52,1232.78,1046.21,1222.32,1046.21Zm1.57-99.69a46.67,46.67,0,0,0-14.53,2.13c-11.25,3.89-25.51,14.56-29.59,43.32-3.77,26.6,7.15,39.23,17,45.15,17,10.28,40.93,6.86,50.55-.1,7.55-5.48,16.08-21.46,17.28-38.73a54.73,54.73,0,0,0-17.26-44.46C1241.8,948.54,1232.51,946.52,1223.89,946.52ZM1248,1038h0Z"/><path class="cls-1" d="M1234.34,1126.11s-39.33,15.49-67.74,23.25l10.12-88.8Z"/><path class="cls-1" d="M1027.23,841s182.56-133.75,224.27-119.45c14.52,5,25.31,26.83-6.26,61.95-51.09,56.84-146.77,145.81-146.77,145.81Z"/><path class="cls-8" d="M1098.47,930.6h-.09a1.31,1.31,0,0,1-.9-.47l-71.24-88.31a1.28,1.28,0,0,1-.27-1,1.27,1.27,0,0,1,.51-.86c.46-.34,46.26-33.83,96.57-65.14,67.83-42.22,111.18-60.55,128.86-54.49a21.89,21.89,0,0,1,14.21,15.54c2.42,9.31.92,25.26-19.93,48.46-50.54,56.23-145.9,145-146.85,145.89A1.29,1.29,0,0,1,1098.47,930.6Zm-69.41-89.34,69.54,86.21c10.34-9.65,98-91.75,145.7-144.8,15.68-17.44,22.55-33.82,19.36-46.12a19.44,19.44,0,0,0-12.57-13.78C1212.11,709.42,1044.17,830.3,1029.06,841.26Z"/><path class="cls-6" d="M844.7,1486s81.4,59.33,71.41,86.64-95.87-45-95.87-45Z"/><path class="cls-1" d="M701.31,1164s-24.91,59.89-60.52,151.38-69.28,159.18-69.28,159.18L878.64,1597.8l110.67-363.44Z"/><path class="cls-6" d="M878.64,1600.12a2.4,2.4,0,0,1-.87-.17L570.65,1476.73a2.32,2.32,0,0,1-1.21-3.18c.33-.68,34-68.65,69.2-159s62.33-163.66,62.6-164.39a2.32,2.32,0,0,1,3.09-1.32L972.59,1265.3a2.31,2.31,0,0,1,1.3,2.75l-93,330.38a2.33,2.33,0,0,1-1.21,1.45A2.28,2.28,0,0,1,878.64,1600.12ZM574.69,1473.36l302.42,121.33,91.78-325.94L704.73,1154.07c-4.87,13.11-30.06,80.66-61.78,162.17C611.3,1397.58,580.81,1460.84,574.69,1473.36Z"/><path class="cls-1" d="M732.24,1200.56S703,1271,683.72,1251.62c-66.27-66.61-50.08-168.81-24.35-217.39,30.59-57.78,53.32-193.68,83.32-172.67,18.22,12.75,8.09,67.94,3.46,114.88-3,30.39-1.27,57.58,3.81,66.71,10.56,19,27.8,36.34,29.69,52.84C786.79,1158.36,732.24,1200.56,732.24,1200.56Z"/><path class="cls-6" d="M683.72,1253.94a2.31,2.31,0,0,1-1.64-.68c-40.83-40.63-47.9-92.66-46.64-129.14,1.48-42.95,15.2-83.18,28.13-104,10.11-16.28,19.78-47,29.13-76.76,15.6-49.64,26.88-82.48,40.8-86.45,3.67-1,7.27-.07,10.71,2.88,20.56,17.71,14.62,53.13,8.34,90.64-6.39,38.15-13,77.61,7.38,101.29,17.2,20,24.93,41.86,23,65-4.06,47.79-47.33,84.07-49.17,85.59a2.32,2.32,0,0,1-3-3.57c.43-.36,43.62-36.6,47.5-82.43,1.86-21.88-5.5-42.6-21.85-61.6-21.8-25.33-15-65.87-8.44-105.08,6.06-36.18,11.79-70.35-6.8-86.36-2.94-2.53-5.07-2.31-6.41-1.93-12.56,3.58-25.89,46-37.65,83.38-9.44,30-19.19,61-29.61,77.81-12.61,20.29-26,59.61-27.44,101.71-1.23,35.56,5.63,86.24,45.28,125.7a2.32,2.32,0,0,1-1.63,4Z"/><path class="cls-4" d="M916.11,1572.6l-32.38,139.29C792.84,1681.64,735.15,1625,618,1604.42c-30.81-5.43-65.72-8.37-106.43-7.67L610,1383s.7.9,2.13,2.57c9.78,11.49,53.66,59.75,137.68,107,25.9,14.58,52.16,28,75.92,39.46,24.93,12.05,47.12,22,63.28,29l.75.32C906.12,1568.58,916.11,1572.6,916.11,1572.6Z"/><path class="cls-6" d="M718.19,1375.09l356.31,49c19.26,2.65,37.14-12.21,39.93-33.18l92.76-696.44c2.8-21-10.55-40.13-29.81-42.77l-356.31-49c-19.27-2.65-37.15,12.2-39.94,33.18l-92.76,696.44C685.58,1353.29,698.93,1372.44,718.19,1375.09Z"/><path class="cls-1" d="M737.18,1377.08l361,49.65c18,2.47,34.64-11.39,37.24-31l93.28-700.34c2.61-19.56-9.84-37.42-27.81-39.89l-361-49.64c-18-2.47-34.64,11.38-37.24,30.94l-93.28,700.34C706.76,1356.75,719.22,1374.61,737.18,1377.08Z"/><path class="cls-8" d="M762.88,935.5l0,.1-.07.57,0,.34-.2,1.52h0a1,1,0,0,0,.16-.06l.21-.07.05,0,1.35-.45,1.54-11.59Zm0,0,0,.1-.07.57,0,.34-.2,1.52.16,0,.21-.07.05,0,1.35-.45,1.54-11.59Zm429.22,22-.19,1.45.12-.14.4-.44.39-.44c.11-.11.22-.24.34-.35s.27-.29.41-.43l.12-.12,0-.06Zm-6.88,70.74a3.06,3.06,0,0,0-.21-.29,6.61,6.61,0,0,1-.37-.55l-.12-.17c-.32-.47-.62-1-.92-1.44l-.49-.85-4.95,37.24,1,1.12c.08-.24.15-.48.22-.71s.15-.47.22-.7c.16-.49.32-1,.49-1.47l0,0v0q.29-.83.6-1.62c.16-.46.34-.91.53-1.35s.29-.71.45-1.06.17-.42.27-.62c.22-.49.44-1,.66-1.42h0l3.33-25h0C1185.7,1028.91,1185.45,1028.59,1185.22,1028.26Zm6.88-70.74-.19,1.45.12-.14.4-.44.39-.44c.11-.11.22-.24.34-.35s.27-.29.41-.43l.12-.12,0-.06ZM1185,1028a6.61,6.61,0,0,1-.37-.55l-.12-.17c-.32-.47-.62-1-.92-1.44l-.49-.85-4.95,37.24,1,1.12c.06-.24.14-.48.22-.71s.15-.47.22-.7c.16-.5.32-1,.49-1.47l0,0v0q.29-.83.6-1.62c.16-.46.34-.91.53-1.35s.29-.72.45-1.06.17-.41.27-.62c.22-.49.44-1,.66-1.42h0l3.33-25h0c-.25-.33-.5-.65-.73-1A3.06,3.06,0,0,0,1185,1028Zm16.13-374.25-361-49.64a31.53,31.53,0,0,0-8.84,0h0c-15.2,2.21-28,15.25-30.27,32.51l-22.61,169.8-.38,2.76-9.71,73L764.2,912.7v.1l-3.44,25.83h0l-.9,6.69,0,.1L751.51,1008l-3.57,26.78-.29,2.18-1.18,8.85h0l-15.6,117.11L729.8,1171l-6.43,48.23-4.08,30.7-.53,4-11.07,83a39.62,39.62,0,0,0-.3,7.27,39,39,0,0,0,4.14,15.91,34.8,34.8,0,0,0,16.88,16.35h.06a31.27,31.27,0,0,0,8.46,2.39l195.76,26.92,4.24.58,147.85,20.33,13.17,1.82c18.85,2.6,36.43-12,39.16-32.55l3.08-23.17h0l2.09-15.67,2-14.88.24-1.8.44-3.26,3.84-28.81h0l12.87-96.7,4-29.68,4.48-33.62,6-45h0l.93-7.06,4.1-30.73,1.5-11.28h0l3.33-25h0l9.71-72.86.18-1.35,2.42-18.16,5.93-44.56,5.73-43,4.37-32.83,12.39-93,3.7-27.81C1233.13,675.13,1220,656.31,1201.14,653.72ZM1227,695.2l-3.91,29.35-12.79,96h0l-4.1,30.79h0l-5,37.6h0l-6,45.17-3.12,23.4-.19,1.45h0l-8.8,66-4.95,37.24-4.45,33.41-6.8,51.06v0l-4.16,31.23-4.08,30.61-12.76,95.85-3.56,26.71h0l-1.25,9.38-.15,1.08-2.07,15.61-1.78,13.36-3.33,25c-2.47,18.53-18.31,31.7-35.33,29.35l-11.29-1.55h0l-6.31-.87L938,1402.84l-4.31-.59h0l-196.27-27a30.21,30.21,0,0,1-21.95-15.14,35,35,0,0,1-4.7-15.93,36.67,36.67,0,0,1,.27-6.76l11-82.8.68-5.09v0L728,1209.9h0l5.07-38.09,1-7.5,16.09-120.74h0l.15-1.11h0l.16-1.21h0l4.33-32.56,9.49-71.2h0l1.54-11.59,0-.09,5.87-44.16,0-.12.08-.54,9.59-72,.4-3,22.49-168.84c2.47-18.53,18.32-31.7,35.33-29.35l349.67,48.08h0l11.29,1.56C1217.67,659.71,1229.51,676.69,1227,695.2Zm-41.82,333.06a3.06,3.06,0,0,0-.21-.29,6.61,6.61,0,0,1-.37-.55l-.12-.17c-.32-.47-.62-1-.92-1.44l-.49-.85-4.95,37.24,1,1.12c.08-.24.15-.48.22-.71s.15-.47.22-.7c.16-.49.32-1,.49-1.47l0,0v0q.29-.83.6-1.62c.16-.46.34-.91.53-1.35s.29-.71.45-1.06.17-.42.27-.62c.22-.49.44-1,.66-1.42h0l3.33-25h0C1185.7,1028.91,1185.45,1028.59,1185.22,1028.26Zm6.88-70.74-.19,1.45.12-.14.4-.44.39-.44c.11-.11.22-.24.34-.35s.27-.29.41-.43l.12-.12,0-.06Zm-6.88,70.74a3.06,3.06,0,0,0-.21-.29,6.61,6.61,0,0,1-.37-.55l-.12-.17c-.32-.47-.62-1-.92-1.44l-.49-.85-4.95,37.24,1,1.12c.08-.24.15-.48.22-.71s.15-.47.22-.7c.16-.49.32-1,.49-1.47l0,0v0q.29-.83.6-1.62c.16-.46.34-.91.53-1.35s.29-.71.45-1.06.17-.42.27-.62c.22-.49.44-1,.66-1.42h0l3.33-25h0C1185.7,1028.91,1185.45,1028.59,1185.22,1028.26Zm6.88-70.74-.19,1.45.12-.14.4-.44.39-.44c.11-.11.22-.24.34-.35s.27-.29.41-.43l.12-.12,0-.06Zm-429.22-22,0,.1-.07.57,0,.34-.2,1.52.16,0,.21-.07.05,0,1.35-.45,1.54-11.59Z"/><path class="cls-6" d="M1099.23,1366a16.73,16.73,0,0,1-2.34-.16l-342.54-47.1c-10.05-1.38-17.05-11.35-15.6-22.21l68.44-513.95,16.62-124.75a20.66,20.66,0,0,1,7.78-13.67,17.57,17.57,0,0,1,13.11-3.54l342.53,47.09c10,1.39,17,11.35,15.6,22.22l-48.57,364.67-36.5,274a20.61,20.61,0,0,1-7.77,13.66A17.68,17.68,0,0,1,1099.23,1366ZM842.36,643.83a14.32,14.32,0,0,0-8.7,3,17.24,17.24,0,0,0-6.47,11.41L810.57,783l-68.44,514c-1.2,9,4.49,17.26,12.69,18.39l342.53,47.09a14.11,14.11,0,0,0,10.57-2.88,17.18,17.18,0,0,0,6.46-11.4l36.5-274,48.57-364.67c1.2-9-4.49-17.26-12.69-18.39L844.23,644A14.68,14.68,0,0,0,842.36,643.83Z"/><path class="cls-8" d="M1024.19,651.87c.51-3.9-2-7.46-5.55-8a6.82,6.82,0,0,0-7.42,6.17c-.52,3.9,2,7.46,5.54,7.95S1023.67,655.77,1024.19,651.87Z"/><path class="cls-1" d="M887.53,1377.36l65.65,9c4.42.61,8.56-2.83,9.2-7.64l1-7.3c.64-4.81-2.46-9.25-6.88-9.86l-65.65-9c-4.42-.6-8.56,2.84-9.2,7.65l-1,7.3C880,1372.31,883.11,1376.75,887.53,1377.36Z"/><path class="cls-8" d="M956.73,1359.76l-5.37-.74-1.73-.24-3.55-.49h0l-55-7.56c-5.12-.71-9.89,3-11,8.47,0,.25-.09.52-.12.78l-1,7.29c-.77,5.82,2.95,11.17,8.3,11.9l50.94,7,4.67.64,10,1.38c5.36.74,10.35-3.41,11.13-9.23l1-7.3C965.8,1365.84,962.09,1360.5,956.73,1359.76Zm4.95,11.45-1,7.29a6.7,6.7,0,0,1-7.29,6l-9.45-1.3-4.74-.65-51.46-7.08a6.75,6.75,0,0,1-5.44-7.8l1-7.29a7.31,7.31,0,0,1,.27-1.25,6.56,6.56,0,0,1,7-4.8l33.27,4.56,21.22,2.92,5.2.71,6,.83C959.75,1363.89,962.18,1367.39,961.68,1371.21Z"/><g class="cls-9"><path class="cls-10" d="M1201.14,709.67l-48.57,364.66L808.88,782.77,825.5,658c1.33-10,9.82-17,19-15.74L1187,689.36C1196.14,690.62,1202.47,699.7,1201.14,709.67Z"/></g><g class="cls-9"><path class="cls-10" d="M784.69,964.48l-44.25,332.23c-1.33,10,5,19,14.15,20.3l342.53,47.1c9.14,1.26,17.63-5.79,19-15.74l15.35-115.25Z"/></g><path class="cls-1" d="M1234.34,1126.11c15.37-5.92,38.92-37.12,15.55-75.51-8.31-13.65-66.27-41.28-74.15,30.1C1169.33,1138.79,1213,1134.34,1234.34,1126.11Z"/><path class="cls-8" d="M1209.84,1132.2c-8.36,0-16.5-1.91-22.89-6.83-10.65-8.2-14.85-23.28-12.47-44.81,3.78-34.2,18.9-44.55,30.92-47.22,19.08-4.24,40.66,8.52,45.58,16.6,12.85,21.11,11,38.78,7.26,49.89-5,14.66-15.37,24.36-23.45,27.47l-.45-1.19.45,1.19A71.44,71.44,0,0,1,1209.84,1132.2Zm3.63-97.18a34.69,34.69,0,0,0-7.52.8c-16.08,3.57-26.09,19.13-28.94,45-2.28,20.59,1.59,34.89,11.49,42.52,8,6.14,24.08,9.77,45.38,1.57,7.28-2.81,17.25-12.11,21.95-25.92,3.61-10.6,5.32-27.48-7-47.75C1244.85,1044.76,1229.23,1035,1213.47,1035Z"/><path class="cls-8" d="M1238.59,1110a1.24,1.24,0,0,1-.58-.14,1.27,1.27,0,0,1-.55-1.71c15.86-30.91,3.33-54.69,3.2-54.93a1.27,1.27,0,0,1,2.23-1.21c.14.25,3.42,6.39,4.69,16.56,1.16,9.34.74,24-7.85,40.74A1.28,1.28,0,0,1,1238.59,1110Z"/><path class="cls-6" d="M901.51,700.11l-2.73-.33a4.48,4.48,0,0,0-5,3.92l-3.21,26.39a1.87,1.87,0,0,1-3.55.55l-14.49-31.87a4.51,4.51,0,0,0-3.55-2.61l-4.74-.57a4.49,4.49,0,0,0-5,3.92l-5.81,47.89a4.5,4.5,0,0,0,3.92,5l2.77.34a4.49,4.49,0,0,0,5-3.94l3.55-29.21a1,1,0,0,1,2-.31l15.67,34.46a4.46,4.46,0,0,0,3.56,2.6l4.72.58a4.52,4.52,0,0,0,5-3.92l5.8-47.89A4.5,4.5,0,0,0,901.51,700.11Z"/><path class="cls-6" d="M949.75,706l-29.07-3.53a4.52,4.52,0,0,0-5,3.93l-5.81,47.89a4.5,4.5,0,0,0,3.94,5l29.14,3.54a4.51,4.51,0,0,0,5-3.92l0-.47a4.51,4.51,0,0,0-3.92-5l-17.45-2.12a4.49,4.49,0,0,1-3.93-5l.76-6.28a4.52,4.52,0,0,1,5-3.93L942,737.69a4.5,4.5,0,0,0,5-3.92l0-.23a4.52,4.52,0,0,0-3.93-5l-13.54-1.65a4.49,4.49,0,0,1-3.93-5l.57-4.61a4.49,4.49,0,0,1,5-3.92l17.36,2.11a4.5,4.5,0,0,0,5-3.94l.06-.54A4.5,4.5,0,0,0,949.75,706Z"/><path class="cls-6" d="M1019.17,714.38l-2.4-.29a4.51,4.51,0,0,0-4.84,3.11l-7.4,23.3a2.78,2.78,0,0,1-5.42-.54l-2.64-24.82a4.5,4.5,0,0,0-3.93-4l-2.81-.33a4.47,4.47,0,0,0-4.77,2.93l-8.52,23.42a2.8,2.8,0,0,1-5.42-.76L969.38,712a4.51,4.51,0,0,0-4-4.16l-2.39-.29a4.51,4.51,0,0,0-5,4.91l4.82,49.17a4.5,4.5,0,0,0,3.94,4l4.68.57a4.5,4.5,0,0,0,4.76-2.89l6.11-16.26a4.5,4.5,0,0,1,8.68,1.06l2,17.24a4.49,4.49,0,0,0,3.93,4l4.68.56a4.49,4.49,0,0,0,4.79-3l16.43-46.59A4.5,4.5,0,0,0,1019.17,714.38Z"/><path class="cls-6" d="M1041.18,729.8a6,6,0,0,1,1.93-1.9,8.74,8.74,0,0,1,3-1.07,14.11,14.11,0,0,1,4.07,0,12.83,12.83,0,0,1,4.06,1.11,8.23,8.23,0,0,1,2.72,2.05,6.59,6.59,0,0,1,1.42,2.83,1.29,1.29,0,0,1,.05.21,4.56,4.56,0,0,0,3.87,3.63l2.71.33a4.48,4.48,0,0,0,5-5.36c-.09-.41-.21-.83-.33-1.23a16.15,16.15,0,0,0-3.55-6.07,19.68,19.68,0,0,0-6.15-4.45,27.19,27.19,0,0,0-8.43-2.35,29.21,29.21,0,0,0-8.59.13,21.4,21.4,0,0,0-7,2.41,14.63,14.63,0,0,0-4.94,4.49,13.88,13.88,0,0,0-2.33,6.31,13.45,13.45,0,0,0,.72,6.66,16.72,16.72,0,0,0,3.5,5.39,27.1,27.1,0,0,0,5.6,4.43,71.11,71.11,0,0,0,7,3.71,52.54,52.54,0,0,1,5.35,2.74,15.21,15.21,0,0,1,3.16,2.4,5.19,5.19,0,0,1,1.38,2.41,7.87,7.87,0,0,1,.11,2.72,6.39,6.39,0,0,1-.84,2.49,5.23,5.23,0,0,1-1.86,1.85,8,8,0,0,1-2.94,1,15.21,15.21,0,0,1-4,0,19.78,19.78,0,0,1-4.54-1.07,9.59,9.59,0,0,1-3.34-2.05,7.48,7.48,0,0,1-1.93-3.18,7,7,0,0,1-.27-1.16,4.52,4.52,0,0,0-3.9-3.78l-2.69-.33a4.48,4.48,0,0,0-5,5.26.13.13,0,0,0,0,.06,16.78,16.78,0,0,0,2,5,18.12,18.12,0,0,0,3.37,4,24.18,24.18,0,0,0,4.44,3.11,26.51,26.51,0,0,0,5.19,2.16,33.33,33.33,0,0,0,5.56,1.17,31.66,31.66,0,0,0,8.61,0,19.6,19.6,0,0,0,6.87-2.29,14.06,14.06,0,0,0,4.76-4.43,14.78,14.78,0,0,0,2.27-6.5,15.62,15.62,0,0,0-.45-6.43,14.93,14.93,0,0,0-3-5.43,24.65,24.65,0,0,0-5.41-4.7,58,58,0,0,0-7.78-4.19,32.35,32.35,0,0,1-8-4.55,5.56,5.56,0,0,1-2.29-5.05A5.89,5.89,0,0,1,1041.18,729.8Z"/><path class="cls-6" d="M1019.84,1042.08l-198.26-23.73a4.16,4.16,0,0,1-3.62-4.61l0-.43a4.16,4.16,0,0,1,4.61-3.63l198.26,23.73a4.16,4.16,0,0,1,3.62,4.61l0,.43A4.16,4.16,0,0,1,1019.84,1042.08Z"/><path class="cls-6" d="M1011.06,1125.31l-197.89-23.12a4.38,4.38,0,0,1-3.83-4.84h0a4.37,4.37,0,0,1,4.84-3.83l197.89,23.12a4.37,4.37,0,0,1,3.83,4.84h0A4.39,4.39,0,0,1,1011.06,1125.31Z"/><rect class="cls-6" x="815.53" y="1046.29" width="124.22" height="8.73" rx="3.49" transform="translate(111.67 -83.99) rotate(5.85)"/><path class="cls-6" d="M1034,1072.91l-74.93-9a4.38,4.38,0,0,1-3.81-4.85h0a4.38,4.38,0,0,1,4.85-3.82l74.93,9a4.38,4.38,0,0,1,3.81,4.85h0A4.38,4.38,0,0,1,1034,1072.91Z"/><path class="cls-6" d="M1093.51,836.48l-74.93-9a4.37,4.37,0,0,1-3.81-4.85h0a4.36,4.36,0,0,1,4.85-3.81l74.92,9a4.39,4.39,0,0,1,3.82,4.86h0A4.38,4.38,0,0,1,1093.51,836.48Z"/><path class="cls-6" d="M1087.65,885.39l-74.92-9a4.38,4.38,0,0,1-3.82-4.85h0a4.38,4.38,0,0,1,4.85-3.82l74.93,9a4.38,4.38,0,0,1,3.81,4.85h0A4.37,4.37,0,0,1,1087.65,885.39Z"/><path class="cls-6" d="M1126.78,865.47l-111.15-13.31a4.38,4.38,0,0,1-3.82-4.85h0a4.38,4.38,0,0,1,4.86-3.81l111.14,13.3a4.38,4.38,0,0,1,3.82,4.85h0A4.38,4.38,0,0,1,1126.78,865.47Z"/><path class="cls-6" d="M1081.53,929.07l-74.92-9a4.38,4.38,0,0,1-3.82-4.85h0a4.38,4.38,0,0,1,4.85-3.81l74.93,9a4.38,4.38,0,0,1,3.81,4.86h0A4.36,4.36,0,0,1,1081.53,929.07Z"/><path class="cls-6" d="M1075.68,978l-74.93-9a4.38,4.38,0,0,1-3.81-4.85h0a4.38,4.38,0,0,1,4.85-3.82l74.93,9a4.38,4.38,0,0,1,3.81,4.85h0A4.38,4.38,0,0,1,1075.68,978Z"/><path class="cls-6" d="M1114.8,958.06l-111.14-13.31a4.38,4.38,0,0,1-3.82-4.85h0a4.38,4.38,0,0,1,4.85-3.81l111.15,13.3a4.38,4.38,0,0,1,3.81,4.85h0A4.37,4.37,0,0,1,1114.8,958.06Z"/><rect class="cls-6" x="805.77" y="1125.47" width="124.22" height="8.73" rx="3.49" transform="translate(136.95 -93.07) rotate(6.66)"/><path class="cls-6" d="M1024.41,1152.51l-75-8.75a4.38,4.38,0,0,1-3.83-4.84h0a4.38,4.38,0,0,1,4.84-3.83l75,8.75a4.38,4.38,0,0,1,3.83,4.84h0A4.38,4.38,0,0,1,1024.41,1152.51Z"/><path class="cls-6" d="M998.38,1209.25l-197.57-25.77a4.37,4.37,0,0,1-3.76-4.89h0a4.37,4.37,0,0,1,4.89-3.76l197.57,25.77a4.37,4.37,0,0,1,3.76,4.89h0A4.37,4.37,0,0,1,998.38,1209.25Z"/><path class="cls-6" d="M913,1223.81l-116.82-15.24a3.22,3.22,0,0,1-2.76-3.6l.3-2.29a3.21,3.21,0,0,1,3.59-2.77l116.82,15.24a3.23,3.23,0,0,1,2.77,3.6l-.3,2.29A3.23,3.23,0,0,1,913,1223.81Z"/><path class="cls-6" d="M1011.36,1236.64l-74.83-9.76a4.38,4.38,0,0,1-3.76-4.9h0a4.37,4.37,0,0,1,4.89-3.76l74.83,9.76a4.37,4.37,0,0,1,3.76,4.89h0A4.38,4.38,0,0,1,1011.36,1236.64Z"/><rect class="cls-12" x="830.74" y="804.16" width="149.46" height="149.46" rx="5.18" transform="translate(114.01 -103.92) rotate(7.01)"/><path class="cls-6" d="M966.38,963.72a8.21,8.21,0,0,1-.84-.05L826.66,946.59a6.86,6.86,0,0,1-6-7.63l17.08-138.89a6.85,6.85,0,0,1,7.63-6l138.89,17.07a6.86,6.86,0,0,1,6,7.64L973.18,957.7A6.87,6.87,0,0,1,966.38,963.72ZM844.56,798.23a2.6,2.6,0,0,0-1.64.57,2.64,2.64,0,0,0-1,1.78L824.83,939.47a2.68,2.68,0,0,0,.55,2,2.62,2.62,0,0,0,1.79,1l138.88,17.08a2.69,2.69,0,0,0,3-2.34l17.07-138.88a2.68,2.68,0,0,0-2.33-3L844.9,798.25A2,2,0,0,0,844.56,798.23Z"/><path class="cls-4" d="M846.45,925.9l106,11.28a5,5,0,0,0,5.14-7l-17.82-41.42a5,5,0,0,0-7-2.44l-24.91,13.41a5,5,0,0,1-7-2.39l-17.14-38.82a5,5,0,0,0-9-.34l-32.18,60.34A5,5,0,0,0,846.45,925.9Z"/><circle class="cls-2" cx="926.37" cy="845.93" r="9.62" transform="translate(-109.77 1553.17) rotate(-76.72)"/><path class="cls-4" d="M1377.66,191.05l55.83-12.13s40.27,42.24,26.6,91.4l-65.84,19.9S1390.62,225.14,1377.66,191.05Z"/><path class="cls-1" d="M1399,241.93a112.32,112.32,0,0,0-45.43-72.08c-.92-.65-1.85-1.31-2.8-2-18.37-12.56-38.22-55.13-50.65-40.84s22.27,57.34,13,68.93c-5.87,7.36-108.31,12.38-72.15,54.16,0,0-6.15,14.82,8.3,27.07,0,0-3.86,15.45,9.38,26,0,0,3.8,22.86,22.08,20.66,26-3.13,52.58-9.48,113.56-33.61C1404.36,286.22,1402.52,262.23,1399,241.93Z"/><path class="cls-13" d="M1276.44,325.58c-14.25-1.31-18.6-18-19.36-21.48-11.55-9.56-10.33-22.52-9.69-26.27-12.14-10.88-9.45-23.69-8.35-27.32-6.6-7.91-8.86-15.21-6.69-21.72,5.48-16.5,37.26-23.45,60.46-28.52,8.35-1.83,17.81-3.9,19-5.34,3.7-4.62-1.61-17-6.74-29-6.66-15.54-13.55-31.61-6.23-40a9,9,0,0,1,7.12-3.47c7.73.16,16.35,11,25.46,22.37,6.72,8.42,13.66,17.13,20.28,21.66,1,.66,1.91,1.31,2.83,2a113.37,113.37,0,0,1,46.12,73.16h0c5.21,29.7,3.28,46.57-5.74,50.14-60.77,24.05-87.81,30.57-114,33.71A21.61,21.61,0,0,1,1276.44,325.58Zm29.81-199.73-.4,0a5.75,5.75,0,0,0-4.52,2.32c-5.94,6.83.82,22.59,6.78,36.5s11.23,26.18,6.28,32.38c-1.81,2.26-8.05,3.71-20.87,6.51-21.15,4.63-53.11,11.62-58,26.31-1.83,5.5.41,12,6.67,19.19l.68.79-.4,1c-.23.55-5.46,13.87,7.83,25.14l.8.67-.26,1c-.14.59-3.4,14.56,8.8,24.25l.51.4.1.64a34.73,34.73,0,0,0,4,10.64c3.92,6.55,9.37,9.44,16.21,8.63,25.9-3.12,52.71-9.6,113.14-33.51,7.13-2.82,8.44-19.31,3.67-46.44a109.94,109.94,0,0,0-44.76-71c-.9-.64-1.82-1.29-2.77-1.93-7-4.82-14.14-13.72-21-22.34C1320.71,136.85,1312.39,126.42,1306.25,125.85Z"/><path class="cls-13" d="M1400.56,200.78a3.35,3.35,0,1,1,4,2.55A3.35,3.35,0,0,1,1400.56,200.78Z"/><path class="cls-4" d="M1013,299.27c0-84-75.08-152-167.69-152s-167.68,68.07-167.68,152,75.08,152,167.68,152a183.25,183.25,0,0,0,53.53-7.92c14.16,15.53,37.27,32.48,74,41,0,0-24-26.87-31.72-60.34C984.58,396.58,1013,350.94,1013,299.27Z"/><path class="cls-1" d="M604.75,392.65c0-68.59,61.32-124.2,137-124.2s137,55.61,137,124.2-61.33,124.2-137,124.2A149.66,149.66,0,0,1,698,510.39c-11.58,12.68-30.45,26.53-60.46,33.48,0,0,19.56-22,25.91-49.28C628,472.14,604.75,434.86,604.75,392.65Z"/><path class="cls-8" d="M633.31,546.39l3.12-3.51c.2-.21,18.9-21.44,25.33-47.61-36.66-23.57-58.51-61.86-58.51-102.62,0-69.31,62.12-125.69,138.48-125.69S880.2,323.34,880.2,392.65,818.08,518.34,741.73,518.34a151.28,151.28,0,0,1-43.26-6.25c-15.09,16.24-35.47,27.42-60.58,33.24ZM741.73,270c-74.71,0-135.49,55-135.49,122.7,0,40.06,21.69,77.7,58,100.67l.9.57-.24,1C660,516,647.3,534,641.55,541.35c22.87-6,41.48-16.76,55.35-32l.64-.7.9.28a148.36,148.36,0,0,0,43.29,6.4c74.7,0,135.48-55.05,135.48-122.71S816.43,270,741.73,270Z"/><rect class="cls-4" x="2110.86" y="730.36" width="365.4" height="195.24" transform="translate(1403.81 -1442.33) rotate(48.75)"/><polygon class="cls-2" points="2246.33 627.03 2279.34 841.09 2487.26 901.76 2246.33 627.03"/><path class="cls-6" d="M2487.41,903.18a2.27,2.27,0,0,1-.62-.09l-207.92-60.66a2.21,2.21,0,0,1-1.56-1.78l-33-214.06a2.2,2.2,0,1,1,4.35-.67l32.8,212.67L2488,898.86a2.2,2.2,0,0,1-.62,4.32Z"/><rect class="cls-1" x="1903.33" y="666.83" width="332.52" height="177.67" transform="translate(744.35 -1004.44) rotate(32.96)"/><path class="cls-6" d="M2161.34,923.44l-1.68-1.09L1879,740.33l1.09-1.69,97.76-150.75L2260.2,771l-1.09,1.68Zm-276.8-184.3,275.62,178.75,94.49-145.7L1979,593.44Z"/><polygon class="cls-6" points="2158.9 921.45 2081.49 737.33 1881.81 741.74 1881.72 737.73 2084.13 733.25 2162.6 919.89 2158.9 921.45"/><polygon class="cls-2" points="1978.49 591.39 2060.39 770.67 2257.48 772.32 1978.49 591.39"/><path class="cls-6" d="M2257.42,773.61h0L2060.31,772a2,2,0,0,1-1.81-1.18L1976.61,591.5a2,2,0,0,1,.51-2.35,2,2,0,0,1,2.41-.17l279,180.94a2,2,0,0,1-1.1,3.69ZM2061.63,768l188.92,1.58L1983.12,596.1Z"/><path class="cls-2" d="M1836.39,467.47l-10.8-6.47c-4.45-2.67-6-10.94-3.37-18.39l42.85-122.94c2.6-7.44,8.36-11.35,12.82-8.68l10.79,6.47c4.45,2.67,6,10.94,3.37,18.39L1849.2,458.79C1846.6,466.23,1840.84,470.14,1836.39,467.47Z"/><path class="cls-2" d="M1934.91,341.12l-171.56-56c-18.76-6.36-51.81-41.51-34.91-84.24,14.8-37.43,52.23-42.72,71-36.36l163.28,53.82c18.76,6.36-72.15-5.52-79.27,15.46L1869,276.42C1861.89,297.4,1953.67,347.48,1934.91,341.12Z"/><path class="cls-6" d="M1845.52,179.53h43.54a0,0,0,0,1,0,0V304.7a0,0,0,0,1,0,0h-43.54a58.87,58.87,0,0,1-58.87-58.87V238.4A58.87,58.87,0,0,1,1845.52,179.53Z" transform="translate(175.12 -577.43) rotate(18.73)"/><path class="cls-2" d="M2138.89,163.6S2063.3,193.12,1997,202.9c-55.24,8.16-92.76-5.22-92.76-5.22-21.15,1.87-45.64,5-60.69,47.31-12.45,35,2.55,57.35,22.67,72.84,0,0,43.9,15.56,91.59,54,21.16,17.06,78.3,93.12,78.3,93.12Z"/><ellipse class="cls-4" cx="2108.52" cy="321.47" rx="167.38" ry="72.31" transform="matrix(0.32, -0.95, 0.95, 0.32, 1126.9, 2215.04)"/><path class="cls-6" d="M2112.79,295.78l18.9,15.56a20.45,20.45,0,0,1,6.36,22.35h0a20.43,20.43,0,0,1-22.05,13.7l-23.14-3.09a20.45,20.45,0,0,1-16.66-26.83l4.24-12.48A20.43,20.43,0,0,1,2112.79,295.78Z"/><path class="cls-6" d="M1567,234.23l-.39,0a2.62,2.62,0,0,1-2.19-3l5.08-33.48a2.61,2.61,0,0,1,2.91-2.2l37.51,4.94-3-5a2.61,2.61,0,0,1,4.45-2.72l5.89,9.62a2.61,2.61,0,0,1-2.57,4l-40.38-5.31L1569.59,232A2.62,2.62,0,0,1,1567,234.23Z"/><path class="cls-6" d="M1605.63,214.08a2.61,2.61,0,0,1-1.65-4.62l9.37-7.69a2.61,2.61,0,0,1,3.31,4l-9.37,7.69A2.6,2.6,0,0,1,1605.63,214.08Z"/><path class="cls-6" d="M1577.58,256.58a2.59,2.59,0,0,1-2.22-1.25l-5.89-9.62a2.61,2.61,0,0,1,2.56-4l40.39,5.32,4.69-31a2.6,2.6,0,0,1,5.15.78l-5.07,33.49a2.6,2.6,0,0,1-2.92,2.19l-37.5-4.93,3,5a2.61,2.61,0,0,1-.87,3.59A2.57,2.57,0,0,1,1577.58,256.58Z"/><path class="cls-6" d="M1571.7,247a2.61,2.61,0,0,1-1.66-4.63l9.37-7.69a2.61,2.61,0,0,1,3.31,4l-9.37,7.68A2.6,2.6,0,0,1,1571.7,247Z"/><path class="cls-8" d="M1000.81,425.55c18.47,21.35,47.26,29.48,74.77,27.48,27.69-2,58-14,74.67-37.13,7.25-10,12.47-23.49,8.09-35.79-3.83-10.76-15.54-14.67-24.87-7.68-12.09,9.05-10.41,27.63-6.15,40.33,4.08,12.19,12.27,24,24.15,29.62,16.29,7.7,32.92-.27,46.14-10.32A150.18,150.18,0,0,0,1235,390.32a1.3,1.3,0,0,0-2.25-1.31,148.43,148.43,0,0,1-27.24,33.15c-11,10-25.15,21.24-40.83,20.81-12.89-.36-23.43-9.3-29.78-20-6.72-11.27-11-27.44-6-40.11,2.77-7.08,10.31-13.45,18.35-11.07,5.75,1.7,8.72,7.39,9.72,12.92,2.33,12.86-4.83,25.88-13.19,35.11-16.83,18.58-42.82,28.56-67.43,30.5-27.09,2.14-55.39-5.6-73.62-26.66-1.1-1.27-2.94.58-1.84,1.84Z"/><path class="cls-8" d="M1437.29,136.08c28.87-23.17,65-47.55,104-37.31,8.8,2.32,18.25,6.49,24.25,13.57,5.69,6.72,7.67,22.35-4.23,24-4,.54-8.59-1.18-9.93-5.25-2-5.95,4.06-11.32,8.62-13.88,8.52-4.81,19.06-6,28.66-5.14,22.47,1.93,41.53,15.3,58.89,28.61,1.33,1,2.63-1.25,1.32-2.25-19.21-14.73-40.8-29.39-66-29.21-9.93.07-21.63,2.31-29.14,9.31-5.18,4.81-7.92,13.43-1.21,18.27a12.65,12.65,0,0,0,17.78-3.42c4.9-7.53,2.23-17.12-3.39-23.39-14.5-16.14-40.86-18.22-60.79-14.4-26.94,5.18-49.71,21.86-70.65,38.66-1.31,1.05.54,2.89,1.84,1.85Z"/><path class="cls-8" d="M533.71,548.56A157.41,157.41,0,0,1,558.92,460c.92-1.42-1.34-2.73-2.25-1.32a159.79,159.79,0,0,0-25.56,89.85,1.3,1.3,0,0,0,2.6,0Z"/><path class="cls-8" d="M2253.53,334c15.26,9.31,26.44,23.38,35.4,38.63A296.68,296.68,0,0,1,2312.07,423a335.31,335.31,0,0,1,19.53,109.71,330.62,330.62,0,0,1-5.68,63.95c-.31,1.64,2.21,2.34,2.52.69,14.08-75,2.21-155.84-35.31-222.62-9.5-16.92-21.51-32.74-38.28-43-1.44-.88-2.75,1.38-1.32,2.25Z"/><path class="cls-6" d="M1115.09,585.5q-1.66-17.46-3.32-34.94c-.29-3.08-5.15-3.11-4.85,0q1.65,17.48,3.31,34.94c.29,3.09,5.15,3.12,4.86,0Z"/><path class="cls-6" d="M1152.48,585.46l30.4-62.76c1.36-2.81-2.83-5.27-4.19-2.46q-15.21,31.39-30.41,62.77c-1.35,2.8,2.83,5.27,4.2,2.45Z"/><path class="cls-6" d="M1202.25,599.2l7.3-4.35c2.68-1.6.24-5.8-2.45-4.2l-7.3,4.35c-2.69,1.6-.24,5.8,2.45,4.2Z"/><path class="cls-6" d="M1647.4,366.47q-6.26-18.32-12.53-36.63c-1-2.94-5.7-1.68-4.68,1.29q6.25,18.31,12.53,36.63c1,2.95,5.7,1.68,4.68-1.29Z"/><path class="cls-6" d="M1678.49,356.72q.85-29.87,1.73-59.74c.09-3.13-4.77-3.13-4.86,0q-.87,29.86-1.73,59.74c-.09,3.13,4.77,3.13,4.86,0Z"/><path class="cls-6" d="M1713.55,361.75q2.19-6.56,4.37-13.12c1-3-3.7-4.24-4.68-1.29q-2.19,6.56-4.37,13.12c-1,3,3.7,4.25,4.68,1.29Z"/></svg>