<svg width="104" height="107" viewBox="0 0 104 107" fill="none" xmlns="http://www.w3.org/2000/svg">
<path d="M55.0085 23.764H49.0103C48.4617 23.764 48.0127 24.2119 48.0127 24.7593V59.0117C48.0127 59.3352 48.1624 59.6338 48.4242 59.8205L69.0374 74.8378C69.4863 75.1613 70.1098 75.0742 70.434 74.6263L74.0005 69.774C74.3372 69.3136 74.2374 68.6915 73.7885 68.3805L56.0061 55.5529V24.7593C56.0061 24.2119 55.5572 23.764 55.0085 23.764ZM82.4178 33.1202L101.971 37.8855C102.594 38.0348 103.205 37.562 103.205 36.9274L103.305 16.8339C103.305 16.0002 102.345 15.5275 101.697 16.05L82.0437 31.3659C81.8952 31.4806 81.7821 31.6347 81.7174 31.8106C81.6528 31.9866 81.6393 32.1771 81.6783 32.3604C81.7174 32.5436 81.8075 32.7122 81.9384 32.8466C82.0692 32.981 82.2354 33.0759 82.4178 33.1202ZM103.33 70.5827L96.2596 68.1565C96.0131 68.0722 95.7433 68.0875 95.5079 68.1991C95.2726 68.3107 95.0903 68.5098 95.0002 68.7537C94.7632 69.3883 94.5138 70.0104 94.2519 70.6324C92.0323 75.8705 88.8524 80.5859 84.7871 84.6295C80.767 88.653 76.0027 91.86 70.7582 94.0729C65.3253 96.3646 59.4854 97.541 53.5869 97.5317C47.6262 97.5317 41.8525 96.3746 36.4155 94.0729C31.1711 91.86 26.4068 88.653 22.3866 84.6295C18.3338 80.5859 15.154 75.8705 12.9218 70.6324C10.6374 65.2089 9.46701 59.383 9.48006 53.5C9.48006 47.5528 10.6398 41.7798 12.9468 36.3551C15.1664 31.1171 18.3463 26.4016 22.4116 22.358C26.4317 18.3346 31.196 15.1275 36.4405 12.9147C41.8525 10.6129 47.6386 9.45583 53.5993 9.45583C59.5601 9.45583 65.3337 10.6129 70.7707 12.9147C76.0152 15.1275 80.7795 18.3346 84.7996 22.358C86.0715 23.6395 87.2687 24.9708 88.366 26.3768L95.8232 20.554C86.0092 8.03746 70.7333 -0.0124275 53.5744 1.4402e-05C23.696 0.0124563 -0.296513 24.2243 0.00276977 54.0475C0.302053 83.348 24.1823 107 53.5993 107C76.7314 107 96.4342 92.3684 103.941 71.8766C104.128 71.3541 103.854 70.7693 103.33 70.5827Z" fill="url(#paint0_linear_181_1078)"/>
<defs>
<linearGradient id="paint0_linear_181_1078" x1="52" y1="-43" x2="52" y2="120.5" gradientUnits="userSpaceOnUse">
<stop offset="0.137856" stop-color="#00BAF2"/>
<stop offset="0.715" stop-color="#3A5575"/>
<stop offset="1" stop-color="#00BAF2"/>
</linearGradient>
</defs>
</svg>
