<svg width="95" height="110" viewBox="0 0 95 110" fill="none" xmlns="http://www.w3.org/2000/svg">
<path fill-rule="evenodd" clip-rule="evenodd" d="M15.4003 0.0327699L63.9939 0.00819234V18.8754L15.4003 18.9C13.2055 18.9025 11.0675 18.2048 9.29938 16.9092L1.42245 11.1172C1.16401 10.9267 0.954 10.6785 0.809285 10.3925C0.66457 10.1066 0.589185 9.79074 0.589185 9.47047C0.589185 9.15019 0.66457 8.83438 0.809285 8.5484C0.954 8.26241 1.16401 8.01423 1.42245 7.82379L9.3076 2.02353C11.0702 0.728312 13.202 0.0279544 15.3921 0.024577L15.4003 0.0327699ZM83.9986 18.859L74.2717 18.8672V0H84.0315C89.2444 0.0819245 93.2322 4.69427 93.2322 9.42132C93.2322 14.1566 89.2444 18.7771 84.0315 18.859H83.9986ZM35.2324 37.7836C37.9868 38.8814 40.3302 40.0856 42.3611 41.2817V110C39.2263 107.656 35.7991 105.729 32.1655 104.265C26.1221 101.857 17.4065 99.8659 4.11113 99.8659C3.02079 99.8659 1.97511 99.4344 1.20412 98.6662C0.433136 97.898 0 96.8561 0 95.7697V36.8824C0 35.796 0.433136 34.7541 1.20412 33.9859C1.97511 33.2177 3.02079 32.7862 4.11113 32.7862C18.2534 32.7862 28.0379 34.908 35.2324 37.7836ZM62.8263 104.265C58.3863 106.043 55.27 108.083 52.6307 109.992V41.2817C54.6616 40.0856 57.0131 38.8814 59.7676 37.7836C66.9621 34.908 76.7466 32.7862 90.8889 32.7862C91.9792 32.7862 93.0249 33.2177 93.7959 33.9859C94.5669 34.7541 95 35.796 95 36.8824V95.7697C95 96.8561 94.5669 97.898 93.7959 98.6662C93.0249 99.4344 91.9792 99.8659 90.8889 99.8659C77.5935 99.8659 68.8779 101.849 62.8263 104.265Z" fill="url(#paint0_linear_181_1080)"/>
<defs>
<linearGradient id="paint0_linear_181_1080" x1="48" y1="5" x2="48" y2="131.5" gradientUnits="userSpaceOnUse">
<stop stop-color="#1D88B4"/>
<stop offset="0.226391" stop-color="#00BAF2"/>
<stop offset="0.823708" stop-color="#3A5575"/>
</linearGradient>
</defs>
</svg>
