<svg width="136" height="109" viewBox="0 0 136 109" fill="none" xmlns="http://www.w3.org/2000/svg">
<path d="M135.734 0.000285L112.186 22.2237L134.712 60.138L135.734 58.8668V0.000285ZM0 0.324508V64.7393C1.2775 64.9053 2.8125 64.9968 4.36146 65.0131C7.74627 65.0487 10.5362 64.8277 12.1035 64.6868L27.1184 26.694L0 0.324508ZM110.97 30.226L108.962 31.5252C108.919 31.5528 107.433 32.4764 106.997 32.7485L103.973 34.5792L104.015 34.6049C102.614 35.4766 102.225 35.7218 100.634 36.7093C99.8272 37.2103 99.8073 37.222 99.0419 37.6974C93.2561 34.5872 86.9781 32.1967 79.6518 30.317C70.4379 33.1007 60.677 37.1288 50.9303 40.9082C54.9767 45.7807 59.4736 47.3673 64.0033 47.4241C69.2559 47.4896 74.6254 45.2055 78.3233 42.6465L80.4334 41.1865L82.551 44.2463L115.473 68.0083L128.337 59.4574L110.97 30.226ZM30.9329 31.0073L17.9962 63.7395L22.7441 67.3904L31.5254 57.437L32.2289 56.64L33.2897 56.5739C33.7174 56.5471 34.1395 56.5347 34.5558 56.5368C37.4678 56.5556 40.0713 57.3113 42.024 59.0348C43.4704 60.31 44.4319 62.0078 44.9897 63.9737L45.6398 63.9332C49.0603 63.7193 52.142 64.4251 54.3742 66.3941C56.6061 68.3636 57.6905 71.3338 57.9044 74.7549L57.9244 75.0628C59.7608 75.4096 61.4047 76.1327 62.7415 77.3121C64.9737 79.2814 66.0579 82.251 66.2717 85.6721L66.3279 86.5617C66.5101 86.6195 66.6908 86.6821 66.8697 86.7494L67.4494 85.9358L69.0092 83.7464L69.8114 82.62L71.9016 84.1094L88.8478 96.1818C90.6911 95.7272 91.7898 95.0198 92.4009 94.1612C93.0131 93.3023 93.3228 92.031 93.1491 90.1385L72.8295 75.5869L70.7427 74.0927L72.2227 72.0265L74.1247 69.356L76.2149 70.8454L99.1229 87.1637C100.966 86.7095 102.066 86.002 102.677 85.1434C103.288 84.2851 103.598 83.017 103.425 81.1278L77.0775 62.4358L74.9844 60.9502L77.954 56.7641L80.0479 58.2492L106.4 76.9454C108.245 76.4909 109.345 75.7834 109.957 74.9242C110.57 74.0645 110.879 72.7924 110.704 70.8964L79.2116 48.1666C75.0326 50.644 69.6868 52.6287 63.9394 52.5569C57.2135 52.4727 50.019 49.2587 44.7265 41.1364C44.5171 40.8152 44.3824 40.4511 44.3322 40.071C44.2821 39.691 44.3177 39.3044 44.4365 38.9399C44.5553 38.5754 44.7542 38.2421 45.0187 37.9646C45.2832 37.687 45.6065 37.4723 45.9649 37.3361C49.6759 35.926 53.4254 34.436 57.1838 32.9578L30.9335 31.009L30.9329 31.0073ZM34.612 61.6958L21.0488 77.0686C21.3131 78.9923 21.9157 80.1888 22.7275 80.9051C23.5394 81.6214 24.802 82.07 26.7437 82.0925L40.3065 66.7203C40.0422 64.7963 39.4397 63.5993 38.6278 62.8829C37.816 62.1666 36.5536 61.7184 34.6117 61.6961L34.612 61.6958ZM46.9615 69.0557L31.6449 86.416C31.909 88.34 32.5118 89.5371 33.3234 90.2534C34.1361 90.9691 35.3979 91.4177 37.3398 91.4396L52.6564 74.0799C52.3923 72.1556 51.7895 70.9591 50.9777 70.2425C50.1658 69.5259 48.9037 69.0777 46.9618 69.0552L46.9615 69.0557ZM55.328 79.9732L41.766 95.346C42.0303 97.2697 42.6329 98.4665 43.4447 99.1831C44.2568 99.8994 45.5192 100.347 47.4608 100.37L61.0234 84.9988C60.7591 83.074 60.1566 81.8772 59.3447 81.1606C58.5329 80.4443 57.2705 79.9963 55.3286 79.9738L55.328 79.9732ZM62.3719 91.1334L51.3096 103.76C51.5734 105.688 52.1759 106.886 52.9886 107.603C53.7999 108.319 55.0608 108.767 56.9999 108.79L68.0628 96.1632C67.7988 94.2362 67.1959 93.0379 66.3832 92.3205C65.5723 91.6047 64.3113 91.157 62.3722 91.1337L62.3719 91.1334ZM72.4499 92.4993C72.933 93.8167 73.2122 95.2767 73.3094 96.8314L73.3755 97.8876L71.0153 100.582L78.6358 106.01C80.4791 105.556 81.5775 104.848 82.1889 103.99C82.8005 103.131 83.1108 101.861 82.9383 99.9709L72.4502 92.4998L72.4499 92.4993Z" fill="url(#paint0_linear_181_1077)"/>
<defs>
<linearGradient id="paint0_linear_181_1077" x1="67.8672" y1="0" x2="67.8672" y2="108.79" gradientUnits="userSpaceOnUse">
<stop offset="0.175" stop-color="#00BAF2"/>
<stop offset="0.715" stop-color="#3A5575"/>
<stop offset="1" stop-color="#00BAF2"/>
</linearGradient>
</defs>
</svg>
