<svg width="83" height="119" viewBox="0 0 83 119" fill="none" xmlns="http://www.w3.org/2000/svg">
<path d="M41.4167 0C30.4323 0 19.8978 4.36353 12.1307 12.1307C4.36353 19.8978 0 30.4323 0 41.4167C0 55.4983 7.04083 67.8642 17.75 75.3783V88.75C17.75 90.3192 18.3734 91.8241 19.483 92.9337C20.5925 94.0433 22.0975 94.6667 23.6667 94.6667H59.1667C60.7359 94.6667 62.2408 94.0433 63.3504 92.9337C64.46 91.8241 65.0833 90.3192 65.0833 88.75V75.3783C75.7925 67.8642 82.8333 55.4983 82.8333 41.4167C82.8333 30.4323 78.4698 19.8978 70.7027 12.1307C62.9355 4.36353 52.401 0 41.4167 0ZM23.6667 112.417C23.6667 113.986 24.29 115.491 25.3996 116.6C26.5092 117.71 28.0141 118.333 29.5833 118.333H53.25C54.8192 118.333 56.3241 117.71 57.4337 116.6C58.5433 115.491 59.1667 113.986 59.1667 112.417V106.5H23.6667V112.417Z" fill="url(#paint0_linear_181_1079)"/>
<defs>
<linearGradient id="paint0_linear_181_1079" x1="-7.57357" y1="-40.2333" x2="116.676" y2="203.297" gradientUnits="userSpaceOnUse">
<stop offset="0.0943955" stop-color="#00BAF2"/>
<stop offset="0.489621" stop-color="#3A5575"/>
<stop offset="0.876095" stop-color="#00BAF2"/>
</linearGradient>
</defs>
</svg>
