<svg width="34" height="28" viewBox="0 0 34 28" fill="none" xmlns="http://www.w3.org/2000/svg">
<path d="M29.6418 3.09133H26.5509V2.70497C26.3925 1.9322 25.9692 1.23902 25.354 0.745207C24.7389 0.251393 23.9706 -0.0120402 23.1818 0.000422764H10.8182C10.0321 -0.00841798 9.26742 0.25667 8.65546 0.75018C8.04351 1.24369 7.62244 1.93484 7.46455 2.70497V3.09133H4.37364C3.21635 3.09132 2.10623 3.55 1.28646 4.36687C0.466687 5.18375 0.00408936 6.29223 0 7.44951V23.4604C0.00407273 24.615 0.464545 25.7212 1.28098 26.5376C2.09742 27.3541 3.20357 27.8145 4.35818 27.8186H29.6418C30.7964 27.8145 31.9026 27.3541 32.719 26.5376C33.5355 25.7212 33.9959 24.615 34 23.4604V7.44951C33.9959 6.29491 33.5355 5.18875 32.719 4.37231C31.9026 3.55588 30.7964 3.0954 29.6418 3.09133ZM30.9091 23.4604C30.9091 23.6268 30.8763 23.7916 30.8126 23.9454C30.7489 24.0991 30.6556 24.2388 30.5379 24.3565C30.4202 24.4742 30.2805 24.5675 30.1268 24.6312C29.973 24.6949 29.8082 24.7277 29.6418 24.7277H4.35818C4.19176 24.7277 4.02697 24.6949 3.87322 24.6312C3.71946 24.5675 3.57976 24.4742 3.46208 24.3565C3.34441 24.2388 3.25106 24.0991 3.18737 23.9454C3.12369 23.7916 3.09091 23.6268 3.09091 23.4604V7.44951C3.09091 7.11341 3.22442 6.79108 3.46208 6.55342C3.69974 6.31576 4.02208 6.18224 4.35818 6.18224H9.92182L10.4936 3.32315C10.4992 3.28639 10.5122 3.25113 10.5316 3.21945C10.5511 3.18777 10.5767 3.16031 10.607 3.1387C10.6372 3.11709 10.6715 3.10176 10.7078 3.09363C10.7441 3.08549 10.7816 3.08471 10.8182 3.09133H23.1818C23.2482 3.0904 23.3128 3.11326 23.3638 3.15578C23.4148 3.1983 23.4489 3.25766 23.46 3.32315L24.0782 6.18224H29.6418C29.9779 6.18224 30.3003 6.31576 30.5379 6.55342C30.7756 6.79108 30.9091 7.11341 30.9091 7.44951V23.4604Z" fill="url(#paint0_linear_1060_730)"/>
<path d="M17.0002 6.18234C15.4719 6.18234 13.9779 6.63554 12.7072 7.48462C11.4364 8.33371 10.446 9.54054 9.86116 10.9525C9.2763 12.3645 9.12327 13.9182 9.42143 15.4171C9.71959 16.9161 10.4555 18.2929 11.5362 19.3736C12.6169 20.4543 13.9938 21.1903 15.4927 21.4884C16.9917 21.7866 18.5454 21.6335 19.9573 21.0487C21.3693 20.4638 22.5761 19.4734 23.4252 18.2027C24.2743 16.9319 24.7275 15.4379 24.7275 13.9096C24.7275 11.8602 23.9134 9.89475 22.4642 8.44561C21.0151 6.99646 19.0496 6.18234 17.0002 6.18234ZM17.0002 18.546C16.0832 18.546 15.1868 18.2741 14.4244 17.7646C13.662 17.2552 13.0677 16.5311 12.7168 15.6839C12.3659 14.8367 12.2741 13.9045 12.4529 13.0051C12.6318 12.1057 13.0734 11.2796 13.7218 10.6312C14.3702 9.9828 15.1964 9.54123 16.0957 9.36234C16.9951 9.18344 17.9273 9.27526 18.7745 9.62617C19.6217 9.97709 20.3458 10.5713 20.8552 11.3338C21.3647 12.0962 21.6366 12.9926 21.6366 13.9096C21.6366 15.1393 21.1481 16.3185 20.2786 17.188C19.4091 18.0575 18.2299 18.546 17.0002 18.546Z" fill="url(#paint1_linear_1060_730)"/>
<defs>
<linearGradient id="paint0_linear_1060_730" x1="17" y1="0" x2="17" y2="27.8186" gradientUnits="userSpaceOnUse">
<stop stop-color="#9747FF"/>
<stop offset="1" stop-color="#5B2B99"/>
</linearGradient>
<linearGradient id="paint1_linear_1060_730" x1="17.0002" y1="6.18234" x2="17.0002" y2="21.6369" gradientUnits="userSpaceOnUse">
<stop stop-color="#9747FF"/>
<stop offset="1" stop-color="#5B2B99"/>
</linearGradient>
</defs>
</svg>
