<svg width="34" height="30" viewBox="0 0 34 30" fill="none" xmlns="http://www.w3.org/2000/svg">
<path d="M32.8835 11.9167C32.6301 11.7704 32.3427 11.6934 32.0502 11.6934C31.7576 11.6934 31.4702 11.7704 31.2168 11.9167L27.0002 13.9667V11.6667C27.0002 11.2246 26.8246 10.8007 26.512 10.4882C26.1994 10.1756 25.7755 10 25.3335 10H23.3668C23.5609 9.46555 23.6623 8.90191 23.6668 8.33334C23.6668 7.00726 23.14 5.73549 22.2024 4.79781C21.2647 3.86012 19.9929 3.33334 18.6668 3.33334C17.8701 3.34308 17.0873 3.54308 16.3835 3.91667C15.7473 2.54197 14.6619 1.4249 13.3061 0.749441C11.9502 0.0739801 10.4048 -0.119604 8.9242 0.20057C7.44364 0.520743 6.11626 1.33558 5.16065 2.5109C4.20504 3.68622 3.67818 5.15193 3.66683 6.66667C3.67902 7.84058 4.00099 8.99045 4.60016 10H2.00016C1.55814 10 1.13421 10.1756 0.821651 10.4882C0.509091 10.8007 0.333496 11.2246 0.333496 11.6667V28.3333C0.333496 28.7754 0.509091 29.1993 0.821651 29.5119C1.13421 29.8244 1.55814 30 2.00016 30H25.3335C25.7755 30 26.1994 29.8244 26.512 29.5119C26.8246 29.1993 27.0002 28.7754 27.0002 28.3333V26.0333L31.2502 28.1667C31.5051 28.2952 31.7889 28.356 32.0741 28.3433C32.3593 28.3307 32.6365 28.245 32.8791 28.0944C33.1217 27.9438 33.3216 27.7334 33.4595 27.4834C33.5974 27.2334 33.6688 26.9522 33.6668 26.6667V13.3333C33.6674 13.0501 33.5958 12.7714 33.4587 12.5235C33.3217 12.2756 33.1237 12.0668 32.8835 11.9167ZM18.6668 6.66667C18.9965 6.66667 19.3187 6.76442 19.5928 6.94756C19.8669 7.13069 20.0805 7.39099 20.2066 7.69553C20.3328 8.00008 20.3658 8.33519 20.3015 8.65849C20.2372 8.98179 20.0784 9.27876 19.8453 9.51185C19.6123 9.74494 19.3153 9.90367 18.992 9.96798C18.6687 10.0323 18.3336 9.99929 18.029 9.87314C17.7245 9.74699 17.4642 9.53337 17.281 9.25929C17.0979 8.98521 17.0002 8.66298 17.0002 8.33334C17.0002 7.89131 17.1758 7.46739 17.4883 7.15483C17.8009 6.84227 18.2248 6.66667 18.6668 6.66667ZM7.00016 6.66667C7.00016 6.0074 7.19566 5.36294 7.56193 4.81477C7.9282 4.26661 8.4488 3.83937 9.05788 3.58707C9.66697 3.33478 10.3372 3.26877 10.9838 3.39739C11.6304 3.52601 12.2243 3.84348 12.6905 4.30965C13.1567 4.77583 13.4742 5.36977 13.6028 6.01637C13.7314 6.66298 13.6654 7.3332 13.4131 7.94229C13.1608 8.55137 12.7336 9.07197 12.1854 9.43824C11.6372 9.80451 10.9928 10 10.3335 10C9.44944 10 8.60159 9.64882 7.97647 9.0237C7.35135 8.39857 7.00016 7.55073 7.00016 6.66667ZM23.6668 26.6667H3.66683V13.3333H23.6668V26.6667ZM30.3335 23.9667L27.0002 22.3V17.7L30.3335 16.0333V23.9667Z" fill="url(#paint0_linear_1060_727)"/>
<path d="M12.0002 21.6667H5.3335V25H12.0002V21.6667Z" fill="url(#paint1_linear_1060_727)"/>
<defs>
<linearGradient id="paint0_linear_1060_727" x1="17.0002" y1="0.049942" x2="17.0002" y2="30" gradientUnits="userSpaceOnUse">
<stop stop-color="#9747FF"/>
<stop offset="1" stop-color="#5B2B99"/>
</linearGradient>
<linearGradient id="paint1_linear_1060_727" x1="8.66683" y1="21.6667" x2="8.66683" y2="25" gradientUnits="userSpaceOnUse">
<stop stop-color="#9747FF"/>
<stop offset="1" stop-color="#5B2B99"/>
</linearGradient>
</defs>
</svg>
